<?xml version="1.0" encoding="iso-8859-1"?>
<!-- Generator: Adobe Illustrator 17.1.0, SVG Export Plug-In . SVG Version: 6.00 Build 0)  -->
<!DOCTYPE svg PUBLIC "-//W3C//DTD SVG 1.1//EN" "http://www.w3.org/Graphics/SVG/1.1/DTD/svg11.dtd">
<svg version="1.1" id="Capa_1" xmlns="http://www.w3.org/2000/svg" xmlns:xlink="http://www.w3.org/1999/xlink" x="0px" y="0px"
	 viewBox="0 0 470 470" style="enable-background:new 0 0 470 470;" xml:space="preserve">
<g>
	<path d="M469.002,269.531l-54.907-95.524l4.793,1.03c4.052,0.87,8.038-1.708,8.908-5.757c0.87-4.05-1.707-8.038-5.757-8.908
		l-87.87-18.882c-3.764-0.808-7.531,1.365-8.714,5.031l-27.583,85.538c-1.271,3.942,0.894,8.169,4.836,9.44
		c0.765,0.247,1.541,0.364,2.303,0.364c3.168,0,6.112-2.023,7.137-5.2l1.405-4.357l48.051,83.595h-99.734
		c-4.142,0-7.5,3.358-7.5,7.5s3.358,7.5,7.5,7.5h108.356l25.047,43.575l-24.674,42.643H261.872c-4.142,0-7.5,3.358-7.5,7.5
		s3.358,7.5,7.5,7.5h113.054c2.677,0,5.151-1.427,6.492-3.744l87.574-151.35C470.332,274.708,470.336,271.852,469.002,269.531z
		 M403.954,359.475l-84.181-146.453l17.878-55.442l56.705,12.185l59.487,103.491L403.954,359.475z"/>
	<path d="M272.758,368.979l-60.287-66.656c-2.779-3.072-7.522-3.31-10.593-0.531c-3.072,2.779-3.31,7.521-0.532,10.594l3.18,3.516
		h-96.131l50.377-87.643c2.064-3.591,0.826-8.176-2.765-10.24c-3.589-2.063-8.175-0.826-10.24,2.765L91.093,315.9h-50.26
		l-24.675-42.644l54.965-95.624c2.064-3.591,0.826-8.176-2.765-10.24c-3.591-2.064-8.175-0.826-10.24,2.765l-57.12,99.374
		c-1.334,2.321-1.33,5.177,0.011,7.494l87.574,151.35c1.341,2.317,3.815,3.744,6.492,3.744h109.451l-3.18,3.516
		c-2.778,3.072-2.541,7.815,0.532,10.594c1.435,1.298,3.235,1.938,5.028,1.938c2.046,0,4.084-0.832,5.565-2.469l60.287-66.656
		C275.341,376.184,275.341,371.835,272.758,368.979z M218.092,417.119H99.399L49.512,330.9h45.895c0.038,0,122.686,0,122.686,0
		l38.99,43.109L218.092,417.119z"/>
	<path d="M98.654,206.124c1.016,3.151,3.941,5.199,7.133,5.199c0.522,0,1.052-0.055,1.581-0.169l87.869-18.882
		c4.05-0.87,6.627-4.858,5.757-8.908c-0.87-4.05-4.861-6.629-8.908-5.757l-4.793,1.03l47.706-82.996l49.921,86.848
		c1.387,2.413,3.912,3.764,6.509,3.764c1.268,0,2.553-0.322,3.731-0.999c3.591-2.064,4.829-6.649,2.765-10.24L243.65,80.592
		l25.152-43.758h49.145l54.623,95.029c2.064,3.592,6.65,4.829,10.24,2.765c3.591-2.064,4.829-6.649,2.765-10.24l-56.785-98.792
		c-1.338-2.328-3.818-3.762-6.502-3.762H147.714c-2.685,0-5.165,1.435-6.502,3.762L86.752,120.34l-1.405-4.358
		c-1.272-3.942-5.495-6.109-9.44-4.836c-3.942,1.271-6.107,5.498-4.836,9.44L98.654,206.124z M152.054,36.834H251.5l-83.947,146.045
		l-56.705,12.185L92.97,139.623L152.054,36.834z"/>
</g>
<g>
</g>
<g>
</g>
<g>
</g>
<g>
</g>
<g>
</g>
<g>
</g>
<g>
</g>
<g>
</g>
<g>
</g>
<g>
</g>
<g>
</g>
<g>
</g>
<g>
</g>
<g>
</g>
<g>
</g>
</svg>
