<?xml version="1.0" encoding="iso-8859-1"?>
<!-- Generator: Adobe Illustrator 18.1.1, SVG Export Plug-In . SVG Version: 6.00 Build 0)  -->
<svg version="1.1" id="Capa_1" xmlns="http://www.w3.org/2000/svg" xmlns:xlink="http://www.w3.org/1999/xlink" x="0px" y="0px"
	 viewBox="0 0 304.378 304.378" style="enable-background:new 0 0 304.378 304.378;" xml:space="preserve">
<g>
	<path style="fill:#010002;" d="M80.796,53.289c-6.625-8.164-19.51-8.523-27.462,0.484C33.035,76.781,1.739,124.356,16.424,187.694
		c0,0-4.15,1.207-9.268,2.698c-5.118,1.485-2.48,9.682,5.896,18.297l35.854,36.904c8.376,8.621,16.595,5.967,18.351-5.918
		l7.152-48.25c1.757-11.89-2.312-19.923-9.094-17.949l-12.281,3.573c-8.893-42.142,10.019-75.086,24.721-93.291
		C85.299,74.404,87.42,61.453,80.796,53.289z"/>
	<path style="fill:#010002;" d="M121.724,300.761c9.469,1.942,21.599,3.617,35.256,3.617c29.17,0,65.318-7.696,97.484-36.692
		c0,0,4.107,3.949,9.159,8.822c5.064,4.868,11.846-0.549,15.142-12.102l14.142-49.468c3.301-11.553-3.089-17.356-14.272-12.961
		l-45.411,17.835c-11.183,4.395-17.122,10.965-13.266,14.675l6.984,6.723c-31.721,27.114-68.723,27.054-91.398,23.442
		c-11.868-1.893-24.149,2.72-27.93,12.532C103.846,286.99,109.954,298.346,121.724,300.761z"/>
	<path style="fill:#010002;" d="M299.277,127.63c-6.853-29.268-26.815-80.781-84.137-106.084c0,0,1.898-5.466,4.242-12.216
		c2.339-6.744-5.385-10.72-17.264-8.882L151.291,8.33c-11.879,1.838-14.468,10.073-5.798,18.389l35.213,33.76
		c8.67,8.316,17.09,11.068,18.797,6.146l3.089-8.915c36.833,17.639,51.959,50.67,58.1,72.481
		c3.258,11.569,12.586,20.794,23.083,20.114C294.262,149.631,302.019,139.324,299.277,127.63z"/>
</g>
<g>
</g>
<g>
</g>
<g>
</g>
<g>
</g>
<g>
</g>
<g>
</g>
<g>
</g>
<g>
</g>
<g>
</g>
<g>
</g>
<g>
</g>
<g>
</g>
<g>
</g>
<g>
</g>
<g>
</g>
</svg>
