<?xml version="1.0" encoding="iso-8859-1"?>
<!-- Generator: Adobe Illustrator 16.0.0, SVG Export Plug-In . SVG Version: 6.00 Build 0)  -->
<!DOCTYPE svg PUBLIC "-//W3C//DTD SVG 1.1//EN" "http://www.w3.org/Graphics/SVG/1.1/DTD/svg11.dtd">
<svg version="1.1" id="Capa_1" xmlns="http://www.w3.org/2000/svg" xmlns:xlink="http://www.w3.org/1999/xlink" x="0px" y="0px"
	 width="624.906px" height="624.906px" viewBox="0 0 624.906 624.906" style="enable-background:new 0 0 624.906 624.906;"
	 xml:space="preserve">
<g>
	<g id="Shape_9">
		<g>
			<path d="M312.453,0c-168.725,0-306,136.459-306,304.176c0,85.191,36.079,166.531,99.194,224.112v83.865
				c0,4.54,2.423,8.735,6.376,11.019c1.99,1.16,4.221,1.734,6.453,1.734c2.181,0,4.362-0.562,6.326-1.658l68.816-38.77
				c37.724,15.853,77.68,23.874,118.834,23.874c168.737,0,306-136.459,306-304.189C618.453,136.459,481.19,0,312.453,0z
				 M312.453,582.859c-39.713,0-78.19-8.162-114.358-24.244c-3.711-1.646-8.021-1.454-11.567,0.548l-55.234,31.118v-67.655
				c0-3.66-1.581-7.143-4.336-9.553c-60.284-52.938-94.871-129.075-94.871-208.884C32.112,150.513,157.872,25.506,312.453,25.506
				c154.581,0,280.341,125.007,280.341,278.67C592.794,457.84,467.034,582.859,312.453,582.859z M201.513,266.975
				c-25.354,0-45.975,20.495-45.975,45.695s20.622,45.694,45.975,45.694s45.975-20.494,45.975-45.694
				S226.867,266.975,201.513,266.975z M201.513,332.871c-11.197,0-20.316-9.055-20.316-20.188c0-11.133,9.119-20.188,20.316-20.188
				s20.316,9.055,20.316,20.188C221.829,323.816,212.723,332.871,201.513,332.871z M316.968,266.975
				c-25.354,0-45.975,20.495-45.975,45.695s20.622,45.694,45.975,45.694s45.976-20.494,45.976-45.694
				S342.321,266.975,316.968,266.975z M316.968,332.871c-11.197,0-20.316-9.055-20.316-20.188c0-11.133,9.119-20.188,20.316-20.188
				s20.315,9.055,20.315,20.188C337.283,323.816,328.178,332.871,316.968,332.871z M432.422,266.975
				c-25.34,0-45.962,20.495-45.962,45.695s20.622,45.694,45.962,45.694c25.354,0,45.976-20.494,45.976-45.694
				S457.775,266.975,432.422,266.975z M432.422,332.871c-11.197,0-20.303-9.055-20.303-20.188c0-11.133,9.105-20.188,20.303-20.188
				c11.198,0,20.316,9.055,20.316,20.188C452.738,323.816,443.62,332.871,432.422,332.871z"/>
		</g>
	</g>
</g>
<g>
</g>
<g>
</g>
<g>
</g>
<g>
</g>
<g>
</g>
<g>
</g>
<g>
</g>
<g>
</g>
<g>
</g>
<g>
</g>
<g>
</g>
<g>
</g>
<g>
</g>
<g>
</g>
<g>
</g>
</svg>
