<?xml version='1.0' encoding='iso-8859-1'?>
<!DOCTYPE svg PUBLIC '-//W3C//DTD SVG 1.1//EN' 'http://www.w3.org/Graphics/SVG/1.1/DTD/svg11.dtd'>
<svg version="1.1" xmlns="http://www.w3.org/2000/svg" viewBox="0 0 427.46 427.46" xmlns:xlink="http://www.w3.org/1999/xlink" enable-background="new 0 0 427.46 427.46">
  <g>
    <path d="m213.727,322.539c5.522,0 10-4.477 10-10v-94.867l69.903-74.846c3.77-4.036 3.554-10.364-0.483-14.134-4.035-3.77-10.362-3.554-14.134,0.482l-65.286,69.903-65.285-69.903c-3.771-4.037-10.099-4.252-14.134-0.482-4.037,3.77-4.253,10.097-0.483,14.134l69.902,74.846v94.867c2.84217e-14,5.523 4.477,10 10,10z"/>
    <path d="m33.265,118.038l55.54,35.04c1.611,1.017 3.464,1.542 5.336,1.542 0.8,0 1.604-0.096 2.393-0.291 2.64-0.65 4.9-2.347 6.262-4.7 11.225-19.39 27.418-35.586 46.83-46.838 2.351-1.363 4.046-3.624 4.695-6.262s0.197-5.428-1.253-7.726l-35.04-55.53c-2.894-4.586-8.916-6.03-13.576-3.254-30.526,18.189-56.267,43.932-74.442,74.443-2.776,4.66-1.332,10.682 3.255,13.576zm73.182-65.639l24.358,38.604c-15.674,10.615-29.207,24.149-39.807,39.812l-38.61-24.359c14.239-21.364 32.686-39.811 54.059-54.057z"/>
    <path d="m168.277,82.498c0.6,2.651 2.254,4.944 4.58,6.351 2.326,1.406 5.128,1.805 7.752,1.104 21.53-5.746 44.688-5.75 66.231,0 0.849,0.227 1.716,0.338 2.579,0.338 1.808,0 3.599-0.49 5.173-1.442 2.326-1.406 3.98-3.699 4.58-6.351l14.5-64.06c1.197-5.289-2.039-10.569-7.296-11.901-17.114-4.338-34.827-6.537-52.646-6.537-17.825,0-35.542,2.199-52.656,6.537-5.258,1.332-8.494,6.612-7.297,11.901l14.5,64.06zm83.683-58.727l-10.08,44.535c-18.515-3.57-37.805-3.567-56.31,0l-10.08-44.535c25.049-5.008 51.411-5.01 76.47,0z"/>
    <path d="m88.849,254.592c1.406-2.327 1.805-5.126 1.103-7.753-2.874-10.758-4.331-21.897-4.331-33.109s1.457-22.351 4.331-33.109c0.702-2.627 0.304-5.426-1.103-7.753-1.406-2.327-3.699-3.981-6.351-4.582l-64.06-14.5c-5.3-1.198-10.568,2.041-11.901,7.297-4.338,17.115-6.537,34.828-6.537,52.647s2.199,35.532 6.537,52.646c1.146,4.52 5.207,7.545 9.686,7.545 0.73,0 1.474-0.081 2.216-0.249l64.06-14.5c2.65-0.599 4.943-2.253 6.35-4.58zm-20.544-12.712l-44.533,10.08c-2.505-12.526-3.772-25.346-3.772-38.23s1.267-25.704 3.771-38.23l44.533,10.08c-1.784,9.249-2.685,18.678-2.685,28.15s0.902,18.901 2.686,28.15z"/>
    <path d="m273.13,96.531c0.649,2.639 2.346,4.899 4.697,6.262 19.401,11.24 35.599,27.437 46.841,46.84 1.362,2.351 3.623,4.047 6.262,4.697 0.789,0.194 1.592,0.29 2.391,0.29 1.872,0 3.725-0.526 5.336-1.542l55.54-35.04c4.587-2.894 6.031-8.918 3.254-13.577-18.192-30.524-43.938-56.269-74.451-74.451-4.661-2.778-10.684-1.333-13.576,3.254l-35.04,55.54c-1.451,2.299-1.904,5.089-1.254,7.727zm47.874-44.141c21.366,14.243 39.817,32.693 54.066,54.067l-38.611,24.359c-10.609-15.67-24.146-29.206-39.814-39.815l24.359-38.611z"/>
    <path d="m259.173,344.962c-0.6-2.651-2.254-4.944-4.58-6.351-2.325-1.406-5.125-1.804-7.752-1.104-21.545,5.75-44.702,5.746-66.231,0-2.624-0.701-5.426-0.302-7.752,1.104-2.326,1.406-3.98,3.699-4.58,6.351l-14.5,64.06c-1.197,5.289 2.039,10.569 7.297,11.901 17.114,4.337 34.831,6.537 52.656,6.537 17.818,0 35.531-2.199 52.646-6.537 5.257-1.332 8.493-6.612 7.296-11.901l-14.5-64.06zm-83.683,58.727l10.08-44.535c18.505,3.567 37.795,3.569 56.31,0l10.08,44.535c-25.059,5.01-51.421,5.008-76.47,5.68434e-14z"/>
    <path d="m420.924,161.092c-1.333-5.255-6.615-8.492-11.899-7.295l-64.061,14.49c-2.651,0.6-4.943,2.252-6.351,4.577-1.406,2.326-1.806,5.123-1.106,7.75 2.868,10.773 4.323,21.916 4.323,33.117s-1.455,22.343-4.323,33.117c-0.699,2.626-0.3,5.424 1.106,7.75 1.407,2.325 3.699,3.978 6.351,4.577l64.061,14.49c0.742,0.168 1.483,0.249 2.214,0.249 4.478,0 8.54-3.026 9.686-7.544 4.337-17.103 6.536-34.813 6.536-52.638s-2.2-35.538-6.537-52.64zm-17.234,90.86l-44.54-10.075c1.78-9.254 2.68-18.684 2.68-28.147s-0.899-18.893-2.68-28.147l44.54-10.075c2.504,12.519 3.77,25.334 3.77,38.222s-1.266,25.704-3.77,38.222z"/>
    <path d="m394.188,309.434l-55.53-35.05c-2.3-1.451-5.092-1.901-7.728-1.254-2.64,0.65-4.9,2.346-6.263,4.697-11.25,19.417-27.446,35.614-46.838,46.838-2.353,1.362-4.049,3.623-4.7,6.262-0.65,2.64-0.198,5.43 1.253,7.729l35.04,55.54c1.898,3.009 5.143,4.666 8.466,4.666 1.742,0 3.507-0.456 5.11-1.411 30.516-18.183 56.258-43.925 74.442-74.441 2.777-4.659 1.334-10.682-3.252-13.576zm-73.184,65.636l-24.358-38.609c15.664-10.602 29.199-24.137 39.813-39.815l38.604,24.366c-14.245,21.368-32.692,39.815-54.059,54.058z"/>
    <path d="m154.32,330.928c-0.65-2.639-2.347-4.9-4.698-6.262-19.402-11.237-35.595-27.433-46.827-46.836-1.361-2.353-3.622-4.049-6.262-4.7-2.64-0.65-5.429-0.198-7.729,1.252l-55.54,35.04c-4.587,2.894-6.03,8.916-3.255,13.575 18.175,30.512 43.916,56.254 74.441,74.443 1.604,0.956 3.367,1.411 5.11,1.411 3.323,0 6.567-1.656 8.466-4.665l35.04-55.53c1.452-2.299 1.904-5.089 1.254-7.728zm-47.873,44.133c-21.373-14.246-39.82-32.693-54.059-54.057l38.61-24.358c10.604,15.67 24.138,29.207 39.806,39.813l-24.357,38.602z"/>
  </g>
</svg>
