<?xml version="1.0" encoding="iso-8859-1"?>
<!-- Generator: Adobe Illustrator 19.1.0, SVG Export Plug-In . SVG Version: 6.00 Build 0)  -->
<svg version="1.1" id="Capa_1" xmlns="http://www.w3.org/2000/svg" xmlns:xlink="http://www.w3.org/1999/xlink" x="0px" y="0px"
	 viewBox="0 0 523.182 523.182" style="enable-background:new 0 0 523.182 523.182;" xml:space="preserve">
<g>
	<g>
		<path d="M261.591,523.182C117.764,523.182,0,405.418,0,261.591S117.764,0,261.591,0s261.591,117.764,261.591,261.591
			S406.383,523.182,261.591,523.182z M261.591,24.132c-131.278,0-237.459,106.181-237.459,237.459S130.313,499.05,261.591,499.05
			S499.05,392.869,499.05,261.591S392.869,24.132,261.591,24.132z"/>
		<path d="M234.563,378.39c-3.861,0-6.757-0.965-9.653-1.931c-8.688-3.861-13.514-13.514-13.514-26.063V191.126
			c0-12.549,4.826-22.201,13.514-26.063c8.688-3.861,19.306-1.931,28.958,4.826l96.528,73.361
			c8.688,6.757,14.479,16.41,14.479,27.028s-4.826,20.271-14.479,27.028l-96.528,73.361
			C247.112,376.459,241.32,378.39,234.563,378.39z M235.528,188.23c0,0.965,0,1.931,0,3.861v159.271c0,1.931,0,2.896,0,3.861
			c0.965,0,1.931-0.965,2.896-1.931l96.528-73.361c2.896-1.931,4.826-4.826,4.826-7.722s-1.931-5.792-4.826-7.722l-96.528-73.361
			C237.459,189.195,236.494,188.23,235.528,188.23z"/>
	</g>
	<g>
	</g>
	<g>
	</g>
	<g>
	</g>
	<g>
	</g>
	<g>
	</g>
	<g>
	</g>
	<g>
	</g>
	<g>
	</g>
	<g>
	</g>
	<g>
	</g>
	<g>
	</g>
	<g>
	</g>
	<g>
	</g>
	<g>
	</g>
	<g>
	</g>
</g>
<g>
</g>
<g>
</g>
<g>
</g>
<g>
</g>
<g>
</g>
<g>
</g>
<g>
</g>
<g>
</g>
<g>
</g>
<g>
</g>
<g>
</g>
<g>
</g>
<g>
</g>
<g>
</g>
<g>
</g>
</svg>
