<?xml version='1.0' encoding='iso-8859-1'?>
<svg version="1.1" xmlns="http://www.w3.org/2000/svg" viewBox="0 0 297.048 297.048" xmlns:xlink="http://www.w3.org/1999/xlink" enable-background="new 0 0 297.048 297.048">
  <g>
    <path d="m228.355,85.321c-3.871-8.204-14.956-9.65-20.782-2.702-14.947,17.815-32.624,27.885-32.624,27.885s14.003-41.129-13.798-83.254c-8.095-12.271-20.407-20.584-30.966-25.901-8.343-4.203-18.218,1.938-18.048,11.275 0.723,39.835-28.094,63.507-42.059,84.45-23.592,35.385-15.132,92.239 35.99,102.156l26.172,26.339v54.979c0,9.113 7.389,16.5 16.5,16.5 9.113,0 16.5-7.387 16.5-16.5v-55.977l25.322-25.155c59.349-10.281 54.762-78.109 37.793-114.095zm-79.852,38.878c0,0 22.077,32.349 25.338,68.027-2.69,2.684-5.6,5.569-8.6,8.402v-19.08h-33v20.197c-3-3.307-6.542-6.648-9.408-9.507 3.258-35.684 25.67-68.039 25.67-68.039z"/>
  </g>
</svg>
