<?xml version="1.0" encoding="iso-8859-1"?>
<!-- Generator: Adobe Illustrator 16.0.0, SVG Export Plug-In . SVG Version: 6.00 Build 0)  -->
<!DOCTYPE svg PUBLIC "-//W3C//DTD SVG 1.1//EN" "http://www.w3.org/Graphics/SVG/1.1/DTD/svg11.dtd">
<svg version="1.1" id="Capa_1" xmlns="http://www.w3.org/2000/svg" xmlns:xlink="http://www.w3.org/1999/xlink" x="0px" y="0px"
	 width="457.391px" height="457.391px" viewBox="0 0 457.391 457.391" style="enable-background:new 0 0 457.391 457.391;"
	 xml:space="preserve">
<g>
	<g>
		<path d="M316.702,174.32l19.488,13.643c1.563,1.094,3.399,1.672,5.31,1.672c3.025,0,5.864-1.478,7.597-3.953
			c2.93-4.186,1.908-9.976-2.276-12.906l-19.494-13.645c-1.563-1.093-3.398-1.672-5.304-1.672c-3.025,0-5.866,1.479-7.601,3.956
			C311.493,165.601,312.515,171.39,316.702,174.32z"/>
		<path d="M115.893,189.635c1.91,0,3.746-0.578,5.31-1.673l19.488-13.642c4.186-2.93,5.208-8.72,2.28-12.906
			c-1.734-2.476-4.575-3.955-7.599-3.955c-1.906,0-3.74,0.579-5.306,1.674l-19.493,13.643c-4.185,2.931-5.206,8.721-2.275,12.907
			C110.03,188.158,112.869,189.635,115.893,189.635z"/>
		<path d="M322.021,96.807c1.906,0,3.741-0.581,5.306-1.677l19.494-13.644c4.183-2.929,5.203-8.719,2.274-12.906
			c-1.733-2.475-4.572-3.952-7.595-3.952c-1.907,0-3.744,0.581-5.311,1.677l-19.488,13.642c-4.185,2.931-5.208,8.721-2.279,12.91
			C316.156,95.33,318.997,96.807,322.021,96.807z"/>
		<path d="M110.573,81.487l19.49,13.641c1.567,1.098,3.402,1.679,5.308,1.679c3.026,0,5.867-1.477,7.601-3.954
			c2.927-4.186,1.904-9.976-2.281-12.906l-19.489-13.642c-1.566-1.096-3.403-1.677-5.31-1.677c-3.024,0-5.863,1.479-7.595,3.952
			C105.367,72.768,106.388,78.558,110.573,81.487z"/>
		<path d="M228.696,39.454c5.108,0,9.267-4.158,9.267-9.27V9.267c0-5.109-4.157-9.267-9.267-9.267c-5.11,0-9.267,4.157-9.267,9.267
			v20.918C219.429,35.296,223.587,39.454,228.696,39.454z"/>
		<path d="M230.444,252.054l16.3-105.189l-17.105,3.304c-0.668,0.125-1.354,0.123-2.018-0.007l-16.973-3.237l16.407,105.13
			L230.444,252.054L230.444,252.054z"/>
		<path d="M198.147,267.064c0,0.522,0.059,1.031,0.166,1.523c-1.862,1.395-3.072,3.609-3.072,6.113c0,2.859,4.001,4.105,3.905,6.658
			c-0.1,2.551-8.271,3.971-8.271,8.613c0,4.77,8.764,5.689,8.764,8.637c0,2.938-4.398,3.85-4.398,6.905
			c0,4.22,3.416,7.638,7.638,7.638h51.634c4.223,0,7.639-3.418,7.639-7.638c0-8.796-40.772-6.905-40.772-6.905
			s45.137-0.107,45.137-8.637c0-8.523-47.53-8.613-47.53-8.613s43.166,0.082,43.166-6.658c0-2.504-1.21-4.719-3.072-6.113
			c0.108-0.492,0.166-1.001,0.166-1.523c0-24.779,11.77-43.749,24.227-63.834c13.121-21.151,26.687-43.022,26.687-72.522
			c0-44.915-36.545-81.46-81.461-81.46c-44.915,0-81.461,36.545-81.461,81.46c0,29.532,13.588,51.474,26.73,72.688
			C186.4,223.477,198.147,242.445,198.147,267.064z M200.485,136.353c1.257-1.21,3.026-1.732,4.737-1.396l23.507,4.507l23.479-4.515
			c1.705-0.321,3.462,0.207,4.711,1.415c1.247,1.208,1.831,2.946,1.565,4.662l-18.16,117.197c-0.403,2.607-2.648,4.53-5.286,4.53
			h-12.554c-2.636,0-4.88-1.92-5.286-4.524l-18.29-117.197C198.638,139.309,199.227,137.562,200.485,136.353z"/>
		<path d="M196.184,393.641c-1.589-3.889-3.367-7.736-5.286-11.441c-12.563-24.272-29.815-40.471-46.504-56.137
			c-4.702-4.412-10.692-11.315-17.034-18.625c-9.258-10.666-18.832-21.695-25.265-25.902c-5.829-3.809-10.592-3.914-14.16-0.312
			c-5.202,5.257-3.667,15.05,4.978,31.75c5.777,11.163,14.154,24.312,23.024,38.231c1.425,2.236,2.872,4.511,4.329,6.805
			c-15.709-17.182-27.246-32.807-34.344-46.52c-8.152-15.748-9.811-27.918-4.667-34.262c3.632-4.48,10.545-5.595,19.465-3.135
			l1.322,0.363l-0.319-1.336c-0.165-0.69-16.648-69.36-20.13-82.357c-0.766-2.866-1.834-5.63-3.171-8.212
			c-4.801-9.276-12.388-14.907-18.042-13.391c-2.729,0.734-7.223,3.835-6.631,16.398l8.583,108.402
			c0.44,3.54,0.749,7.246,1.077,11.176c1.001,12.01,2.038,24.43,6.953,33.924c2.044,3.95,4.413,7.52,7.24,10.906
			c5.091,6.102,19.25,20.836,34.242,36.432c14.593,15.184,29.684,30.883,35.195,37.438c4.323,5.146,8.064,10.814,11.44,17.336
			c2.719,5.254,5,10.674,7.038,16.217h52.745l-0.792-2.693C211.136,433.162,204.171,413.191,196.184,393.641z"/>
		<path d="M397.011,169.162c-5.654-1.517-13.241,4.114-18.042,13.391c-1.338,2.582-2.405,5.346-3.171,8.212
			c-3.481,12.997-19.965,81.667-20.13,82.358l-0.318,1.335l1.321-0.363c8.921-2.46,15.833-1.347,19.466,3.136
			c5.144,6.344,3.484,18.514-4.667,34.26c-7.1,13.713-18.636,29.338-34.345,46.521c1.458-2.294,2.904-4.567,4.329-6.805
			c8.87-13.921,17.247-27.068,23.024-38.231c8.645-16.701,10.18-26.494,4.978-31.75c-3.567-3.604-8.332-3.498-14.16,0.312
			c-6.433,4.207-16.007,15.236-25.265,25.902c-6.342,7.309-12.332,14.211-17.034,18.625c-16.688,15.666-33.941,31.862-46.504,56.135
			c-1.919,3.707-3.697,7.555-5.286,11.443c-7.987,19.551-14.952,39.521-21.288,61.057l-0.792,2.691h52.745
			c2.038-5.543,4.319-10.963,7.038-16.215c3.376-6.521,7.117-12.191,11.44-17.336c5.511-6.557,20.603-22.256,35.194-37.439
			c14.992-15.596,29.151-30.33,34.242-36.431c2.827-3.388,5.196-6.956,7.24-10.907c4.915-9.494,5.952-21.912,6.953-33.923
			c0.329-3.93,0.637-7.636,1.077-11.176l8.583-108.402C404.235,172.997,399.74,169.897,397.011,169.162z"/>
	</g>
</g>
<g>
</g>
<g>
</g>
<g>
</g>
<g>
</g>
<g>
</g>
<g>
</g>
<g>
</g>
<g>
</g>
<g>
</g>
<g>
</g>
<g>
</g>
<g>
</g>
<g>
</g>
<g>
</g>
<g>
</g>
</svg>
