<?xml version="1.0" encoding="iso-8859-1"?>
<!-- Generator: Adobe Illustrator 18.0.0, SVG Export Plug-In . SVG Version: 6.00 Build 0)  -->
<!DOCTYPE svg PUBLIC "-//W3C//DTD SVG 1.1//EN" "http://www.w3.org/Graphics/SVG/1.1/DTD/svg11.dtd">
<svg version="1.1" id="Capa_1" xmlns="http://www.w3.org/2000/svg" xmlns:xlink="http://www.w3.org/1999/xlink" x="0px" y="0px"
	 viewBox="0 0 363.25 363.25" style="enable-background:new 0 0 363.25 363.25;" xml:space="preserve">
<path d="M361.413,137.674c-4.413-13.584-16.156-23.483-30.29-25.537l-80.052-11.632L215.276,27.97
	c-6.32-12.809-19.365-20.917-33.647-20.917h-0.001c-14.282,0-27.327,8.109-33.648,20.916l-35.798,72.536l-80.053,11.632
	c-14.134,2.054-25.877,11.954-30.291,25.537c-4.413,13.584-0.732,28.495,9.495,38.465l57.926,56.465L55.581,312.33
	c-2.415,14.077,3.372,28.305,14.927,36.7c11.556,8.396,26.875,9.503,39.517,2.856l71.603-37.643l71.602,37.643
	c5.49,2.887,11.484,4.311,17.457,4.311c7.78,0,15.522-2.417,22.06-7.167c11.556-8.396,17.342-22.623,14.926-36.7l-13.677-79.727
	l57.924-56.466C362.146,166.168,365.827,151.257,361.413,137.674z"/>
<g>
</g>
<g>
</g>
<g>
</g>
<g>
</g>
<g>
</g>
<g>
</g>
<g>
</g>
<g>
</g>
<g>
</g>
<g>
</g>
<g>
</g>
<g>
</g>
<g>
</g>
<g>
</g>
<g>
</g>
</svg>
