<?xml version="1.0" encoding="utf-8"?>
<!-- Generator: Adobe Illustrator 16.0.0, SVG Export Plug-In . SVG Version: 6.00 Build 0)  -->
<!DOCTYPE svg PUBLIC "-//W3C//DTD SVG 1.1 Tiny//EN" "http://www.w3.org/Graphics/SVG/1.1/DTD/svg11-tiny.dtd">
<svg version="1.1" baseProfile="tiny" id="Layer_1" xmlns="http://www.w3.org/2000/svg" xmlns:xlink="http://www.w3.org/1999/xlink"
	 x="0px" y="0px" width="24px" height="24px" viewBox="0 0 24 24" xml:space="preserve">
<g id="Shape_284">
	<g>
		<path d="M6.785,23.085c-0.563,0-1.138-0.177-1.71-0.525c-1.721-1.048-1.13-2.895-0.608-4.524c0.337-1.055,0.687-2.146,0.434-2.969
			c-0.211-0.687-0.941-1.191-1.714-1.726c-1.048-0.726-2.236-1.547-2.506-3.065C0.541,9.489,0.657,8.828,1.026,8.313
			c0.72-1.008,2.188-1.236,3.484-1.438l0.258-0.04C5.104,6.78,5.434,6.773,5.683,6.773l0.761,0.009c0.507,0,0.895-0.041,1.143-0.241
			c0.622-0.504,0.921-1.402,1.238-2.354c0.353-1.062,0.718-2.159,1.591-2.813c0.348-0.256,0.572-0.421,1.116-0.457
			c0,0,0.001,0,0.001,0c2.567,0,3.119,1.733,3.605,3.262c0.348,1.095,0.677,2.129,1.678,2.529c0.354,0.141,0.778,0.102,1.154,0.091
			c0.377-0.013,0.764-0.022,1.127,0.036l0.52,0.078c1.604,0.235,3.422,0.502,3.719,2.362c0.314,1.969-1.235,3.172-2.481,4.138
			c-0.791,0.613-1.538,1.192-1.697,1.823c-0.16,0.635,0.141,1.643,0.433,2.617c0.562,1.879,1.261,4.218-1.19,4.972
			C18.023,22.941,17.646,23,17.282,23h0c-1.308,0-2.313-0.749-3.199-1.41c-0.671-0.5-1.305-0.973-1.988-1.086
			c-0.783-0.126-1.518,0.474-2.314,1.118C8.934,22.308,7.975,23.085,6.785,23.085z M5.683,7.573c-0.326,0-0.569,0.016-0.789,0.051
			l-0.261,0.04c-1.14,0.178-2.432,0.379-2.957,1.113c-0.243,0.34-0.311,0.783-0.209,1.357c0.211,1.19,1.209,1.881,2.173,2.548
			c0.851,0.588,1.731,1.197,2.024,2.149c0.326,1.063-0.062,2.274-0.437,3.447c-0.573,1.79-0.841,2.925,0.263,3.597
			c0.452,0.275,0.875,0.409,1.294,0.409c0.907,0,1.712-0.653,2.492-1.284c0.891-0.723,1.824-1.472,2.948-1.286
			c0.875,0.145,1.617,0.698,2.335,1.233c0.863,0.644,1.679,1.252,2.721,1.252c0,0,0,0,0,0c0.289,0,0.577-0.046,0.883-0.14
			c1.579-0.486,1.302-1.827,0.659-3.979c-0.337-1.128-0.656-2.193-0.441-3.042c0.227-0.898,1.08-1.56,1.982-2.26
			c1.19-0.924,2.421-1.879,2.182-3.379c-0.19-1.195-1.278-1.438-3.045-1.698l-0.529-0.079c-0.315-0.051-0.649-0.038-0.976-0.026
			c-0.459,0.015-0.961,0.059-1.477-0.148c-1.352-0.539-1.772-1.862-2.144-3.028c-0.481-1.512-0.861-2.705-2.794-2.705
			c-0.308,0.02-0.375,0.069-0.627,0.255C10.222,2.518,9.912,3.45,9.583,4.438C9.245,5.458,8.894,6.512,8.09,7.163
			C7.611,7.55,6.989,7.582,6.444,7.582L5.683,7.573z"/>
	</g>
</g>
</svg>
