<?xml version='1.0' encoding='iso-8859-1'?>
<svg version="1.1" xmlns="http://www.w3.org/2000/svg" viewBox="0 0 463 463" xmlns:xlink="http://www.w3.org/1999/xlink" enable-background="new 0 0 463 463">
  <g>
    <g>
      <path d="m367.5,232c-5.646,0-11.161,0.742-16.5,2.177v-2.677c0-12.958-10.542-23.5-23.5-23.5h-272c-12.958,0-23.5,10.542-23.5,23.5v112c0,32.59 15.237,64.305 40,83.741v12.259c0,12.958 10.542,23.5 23.5,23.5h192c12.958,0 23.5-10.542 23.5-23.5v-12.259c17.495-13.731 30.226-33.594 36.197-55.563 6.506,2.201 13.305,3.322 20.303,3.322 35.014,0 63.5-28.486 63.5-63.5v-16c0-35.014-28.486-63.5-63.5-63.5zm-16.5,63.5c0-9.098 7.402-16.5 16.5-16.5s16.5,7.402 16.5,16.5v16c0,9.098-7.402,16.5-16.5,16.5s-16.5-7.402-16.5-16.5v-16zm-63.5,152.5h-192c-4.687,0-8.5-3.813-8.5-8.5v-8.5h209v8.5c0,4.687-3.813,8.5-8.5,8.5zm48.5-104.5c0,28.378-13.351,55.925-34.987,72.5h-219.026c-21.636-16.576-34.987-44.122-34.987-72.5v-112c0-4.687 3.813-8.5 8.5-8.5h272c4.687,0 8.5,3.813 8.5,8.5v64 16 32zm80-32c0,26.743-21.757,48.5-48.5,48.5-6.015,0-11.832-1.089-17.35-3.21 0.555-4.395 0.85-8.833 0.85-13.29v-5.181c4.802,2.965 10.454,4.681 16.5,4.681 17.369,0 31.5-14.131 31.5-31.5v-16c0-17.369-14.131-31.5-31.5-31.5-6.046,0-11.698,1.716-16.5,4.681v-18.792c5.264-1.91 10.793-2.889 16.5-2.889 26.743,0 48.5,21.757 48.5,48.5v16z"/>
      <path d="m186.434,148.65c-8.213,7.525-18.434,16.89-18.434,34.85 0,4.142 3.357,7.5 7.5,7.5s7.5-3.358 7.5-7.5c0-11.36 5.987-16.845 13.566-23.79 8.213-7.525 18.434-16.89 18.434-34.85 0-17.969-10.22-27.339-18.432-34.869-7.581-6.949-13.568-12.44-13.568-23.811 0-11.372 5.988-16.862 13.568-23.813 8.212-7.528 18.432-16.898 18.432-34.867 0-4.142-3.357-7.5-7.5-7.5s-7.5,3.358-7.5,7.5c0,11.371-5.987,16.861-13.568,23.812-8.212,7.529-18.432,16.899-18.432,34.868s10.22,27.339 18.432,34.868c7.58,6.951 13.568,12.441 13.568,23.813 0,11.359-5.987,16.845-13.566,23.789z"/>
      <path d="m234.434,148.65c-8.213,7.525-18.434,16.89-18.434,34.85 0,4.142 3.357,7.5 7.5,7.5s7.5-3.358 7.5-7.5c0-11.36 5.987-16.845 13.566-23.79 8.213-7.524 18.434-16.89 18.434-34.85 0-17.969-10.22-27.339-18.432-34.869-7.581-6.949-13.568-12.44-13.568-23.811 0-4.142-3.357-7.5-7.5-7.5s-7.5,3.358-7.5,7.5c0,17.969 10.22,27.339 18.432,34.868 7.58,6.951 13.568,12.441 13.568,23.813 0,11.359-5.987,16.845-13.566,23.789z"/>
      <path d="m138.434,148.65c-8.213,7.525-18.434,16.89-18.434,34.85 0,4.142 3.357,7.5 7.5,7.5 4.143,0 7.5-3.358 7.5-7.5 0-11.36 5.987-16.845 13.566-23.79 8.213-7.524 18.434-16.89 18.434-34.85 0-17.969-10.22-27.339-18.432-34.869-7.581-6.949-13.568-12.44-13.568-23.811 0-4.142-3.357-7.5-7.5-7.5s-7.5,3.358-7.5,7.5c0,17.969 10.22,27.339 18.432,34.868 7.58,6.951 13.568,12.441 13.568,23.813 0,11.359-5.987,16.845-13.566,23.789z"/>
    </g>
  </g>
</svg>
