<?xml version="1.0" encoding="iso-8859-1"?>
<!-- Generator: Adobe Illustrator 18.1.1, SVG Export Plug-In . SVG Version: 6.00 Build 0)  -->
<svg version="1.1" id="Capa_1" xmlns="http://www.w3.org/2000/svg" xmlns:xlink="http://www.w3.org/1999/xlink" x="0px" y="0px"
	 viewBox="0 0 52 52" style="enable-background:new 0 0 52 52;" xml:space="preserve">
<g>
	<g>
		<path style="fill:#010002;" d="M7.833,18.167c0,4.64,1.764,8.866,4.636,12.08l12.234,21.008c0.267,0.457,0.754,0.74,1.283,0.745
			c0.004,0,0.009,0,0.013,0c0.524,0,1.011-0.273,1.283-0.722l14.132-23.307c0.109-0.18,0.175-0.375,0.203-0.571
			c1.608-2.709,2.549-5.86,2.549-9.233C44.167,8.15,36.017,0,26,0S7.833,8.15,7.833,18.167z M26.026,47.564l-7.483-12.85
			c2.278,1.031,4.798,1.619,7.457,1.619c2.86,0,5.557-0.683,7.966-1.865L26.026,47.564z M41.167,18.167
			c0,8.363-6.804,15.167-15.167,15.167S10.833,26.53,10.833,18.167S17.637,3,26,3S41.167,9.804,41.167,18.167z"/>
		<path style="fill:#010002;" d="M18.167,18.167C18.167,22.486,21.681,26,26,26s7.833-3.514,7.833-7.833S30.319,10.334,26,10.334
			S18.167,13.848,18.167,18.167z M32.833,18.167C32.833,21.935,29.767,25,26,25c-3.768,0-6.833-3.065-6.833-6.833
			s3.065-6.833,6.833-6.833C29.767,11.334,32.833,14.399,32.833,18.167z"/>
	</g>
</g>
<g>
</g>
<g>
</g>
<g>
</g>
<g>
</g>
<g>
</g>
<g>
</g>
<g>
</g>
<g>
</g>
<g>
</g>
<g>
</g>
<g>
</g>
<g>
</g>
<g>
</g>
<g>
</g>
<g>
</g>
</svg>
