<?xml version="1.0" encoding="iso-8859-1"?>
<!-- Generator: Adobe Illustrator 18.0.0, SVG Export Plug-In . SVG Version: 6.00 Build 0)  -->
<!DOCTYPE svg PUBLIC "-//W3C//DTD SVG 1.1//EN" "http://www.w3.org/Graphics/SVG/1.1/DTD/svg11.dtd">
<svg version="1.1" id="Capa_1" xmlns="http://www.w3.org/2000/svg" xmlns:xlink="http://www.w3.org/1999/xlink" x="0px" y="0px"
	 viewBox="0 0 320 320" style="enable-background:new 0 0 320 320;" xml:space="preserve">
<g>
	<path d="M248.746,155.938c-3.022,0-5.92,0.542-8.609,1.533c-4.358-7.749-12.574-12.989-21.979-12.989
		c-3.021,0-5.919,0.542-8.607,1.532c-4.358-7.749-12.575-12.988-21.98-12.988c-1.815,0-3.585,0.199-5.293,0.57v-18.52
		c0-14.151-11.347-25.665-25.294-25.665s-25.294,11.514-25.294,25.665v81.629c-4.527-1.18-10.083-1.963-16.893-2.078
		c-19.022-0.331-28.55,11.052-29.413,21.758c-0.911,11.294,7.086,21.069,18.601,22.737c12.912,1.872,19.502,12.662,29.185,30.112
		C145.721,291.852,161.339,320,204.298,320c28.519,0,49.409-12.568,60.413-36.347c8.361-18.068,9.328-39.014,9.328-53.197v-48.854
		C274.039,167.451,262.692,155.938,248.746,155.938z M254.039,230.456c0,48.096-15.341,69.544-49.741,69.544
		c-31.184,0-41.59-18.754-53.64-40.47c-9.574-17.255-20.426-36.813-43.805-40.201c-1.092-0.158-1.594-0.596-1.533-1.336
		c0.117-1.463,3.029-3.449,9.137-3.37c11.884,0.203,17.006,2.97,18.201,4.204c1.874,3.949,6.16,6.274,10.576,5.586
		c4.868-0.761,8.456-4.953,8.456-9.88v-99.457c0-3.124,2.375-5.665,5.294-5.665s5.294,2.541,5.294,5.665v43.614v47.136
		c0,5.522,4.478,10,10,10s10-4.478,10-10V158.69c0-3.123,2.374-5.664,5.293-5.664s5.294,2.541,5.294,5.664v11.456v35.68
		c0,5.522,4.478,10,10,10s10-4.478,10-10v-35.68c0-3.123,2.374-5.664,5.293-5.664s5.293,2.541,5.293,5.664v10.008
		c0,0.162,0,1.123,0,1.448v24.224c0,5.522,4.478,10,10,10s10-4.478,10-10v-24.224c0-3.123,2.375-5.664,5.295-5.664
		c2.919,0,5.293,2.541,5.293,5.664V230.456z"/>
	<path d="M74.627,58.237c15.807,0,28.666-13.063,28.666-29.118C103.293,13.063,90.434,0,74.627,0S45.961,13.063,45.961,29.119
		C45.961,45.175,58.82,58.237,74.627,58.237z M74.627,20c4.778,0,8.666,4.091,8.666,9.119c0,5.027-3.888,9.118-8.666,9.118
		s-8.666-4.091-8.666-9.118C65.961,24.091,69.849,20,74.627,20z"/>
	<path d="M156.691,58.237c15.807,0,28.666-13.063,28.666-29.118C185.357,13.063,172.498,0,156.691,0s-28.667,13.063-28.667,29.119
		C128.024,45.175,140.885,58.237,156.691,58.237z M156.691,20c4.778,0,8.666,4.091,8.666,9.119c0,5.027-3.888,9.118-8.666,9.118
		c-4.779,0-8.667-4.091-8.667-9.118C148.024,24.091,151.912,20,156.691,20z"/>
	<path d="M238.755,58.237c15.807,0,28.666-13.063,28.666-29.118C267.421,13.063,254.562,0,238.755,0s-28.666,13.063-28.666,29.119
		C210.089,45.175,222.948,58.237,238.755,58.237z M238.755,20c4.778,0,8.666,4.091,8.666,9.119c0,5.027-3.888,9.118-8.666,9.118
		s-8.666-4.091-8.666-9.118C230.089,24.091,233.977,20,238.755,20z"/>
	<path d="M103.293,113.17c0-16.056-12.859-29.118-28.666-29.118S45.961,97.114,45.961,113.17c0,16.057,12.859,29.119,28.666,29.119
		S103.293,129.227,103.293,113.17z M74.627,122.289c-4.778,0-8.666-4.091-8.666-9.119c0-5.027,3.888-9.118,8.666-9.118
		s8.666,4.091,8.666,9.118C83.293,118.198,79.405,122.289,74.627,122.289z"/>
	<path d="M238.755,142.289c15.807,0,28.666-13.063,28.666-29.119c0-16.056-12.859-29.118-28.666-29.118
		s-28.666,13.063-28.666,29.118C210.089,129.227,222.948,142.289,238.755,142.289z M238.755,104.052
		c4.778,0,8.666,4.091,8.666,9.118c0,5.028-3.888,9.119-8.666,9.119s-8.666-4.091-8.666-9.119
		C230.089,108.143,233.977,104.052,238.755,104.052z"/>
</g>
<g>
</g>
<g>
</g>
<g>
</g>
<g>
</g>
<g>
</g>
<g>
</g>
<g>
</g>
<g>
</g>
<g>
</g>
<g>
</g>
<g>
</g>
<g>
</g>
<g>
</g>
<g>
</g>
<g>
</g>
</svg>
