<?xml version="1.0" encoding="iso-8859-1"?>
<!-- Generator: Adobe Illustrator 18.1.1, SVG Export Plug-In . SVG Version: 6.00 Build 0)  -->
<svg version="1.1" id="Capa_1" xmlns="http://www.w3.org/2000/svg" xmlns:xlink="http://www.w3.org/1999/xlink" x="0px" y="0px"
	 viewBox="0 0 202.52 202.52" style="enable-background:new 0 0 202.52 202.52;" xml:space="preserve">
<g>
	<path style="fill:#010002;" d="M101.255,0C63.576,0,32.916,30.248,32.916,67.422c0,18.764,7.816,39.239,20.972,54.875
		c0.175,0.24,0.311,0.426,0.44,0.583c4.66,5.74,14.272,20.446,14.272,29.218c0,1.793,0.462,3.557,1.381,5.232l0.122,0.458v27.6
		c0,5.723,4.663,10.386,10.393,10.386h5.647l2.727,3.149c1.976,2.29,4.839,3.597,7.866,3.597h9.058c3.01,0,5.866-1.296,7.831-3.575
		l2.752-3.171h5.662c5.723,0,10.368-4.667,10.368-10.386v-27.403c1.138-1.854,1.721-3.829,1.721-5.887
		c0-7.981,8.342-21.888,14.265-29.228c0.379-0.458,0.734-0.981,0.959-1.421c12.676-15.6,20.249-35.799,20.249-54.023
		C169.604,30.248,138.944,0,101.255,0z M122.037,189.744h-8.421l-4.552,5.254c-0.82,0.948-2.015,1.492-3.271,1.492h-9.058
		c-1.267,0-2.466-0.544-3.3-1.51l-4.538-5.236H80.49c-2.405,0-4.363-1.958-4.363-4.355v-22.865l0.598,0.168
		c1.113,0.301,2.033,0.437,2.906,0.437h43.465c0.827,0,1.696-0.115,2.698-0.372l0.583-0.154v22.783
		C126.382,187.786,124.435,189.744,122.037,189.744z M83.167,78.516c-0.458-6.428,3.21-11.545,7.108-16.971
		c3.089-4.313,6.27-8.747,7.448-14.029c16.262,14.992,31.544,29.186,18.009,50.77c-2.341-13.363-6.539-21.702-16.033-33.079
		l-0.594-0.727l-4.309,3.59l0.598,0.716c10.504,12.605,13.915,20.754,15.883,37.929c0.043,0.351,0,0.741,0.032,1.102l-0.44-0.215
		C104.658,104.624,84.298,93.741,83.167,78.516z M125.043,156.696c-0.623,0.272-1.274,0.397-1.947,0.397h-21.287
		c0.197-2.766,3.611-10.926,5.54-15.525c4.746-11.323,10.644-25.396,9.491-35.491c-0.225-1.911-0.458-3.693-0.723-5.418l3.361,2.194
		l0.519-0.769c16.974-26.015-1.9-43.411-18.563-58.768c-1.424-1.306-2.834-2.62-4.23-3.926l-5.544-5.211l0.837,7.566
		c0.68,6.145-2.945,11.187-6.785,16.545c-4.298,5.995-8.74,12.175-8.135,20.625c1.321,17.751,22.035,29.515,30.871,33.745
		l0.845,0.397l2.026-4.23c0.021,8.596-4.996,20.7-9.158,30.621c-3.493,8.342-5.726,13.907-5.884,17.651H79.628
		c-2.763,0-5.003-2.24-5.003-4.996c0-12.73-14.011-30.971-15.607-33.011l-0.512-0.68c-12.25-14.541-19.562-33.602-19.562-50.984
		c0-33.849,27.951-61.384,62.308-61.384c34.368,0,62.315,27.536,62.315,61.384c0,17.021-7.093,35.799-19.032,50.351l-0.408,0.655
		c-0.05,0.125-0.215,0.387-0.429,0.662c-4.334,5.372-15.6,21.752-15.6,33.011C128.096,154.105,126.897,155.916,125.043,156.696z"/>
</g>
<g>
</g>
<g>
</g>
<g>
</g>
<g>
</g>
<g>
</g>
<g>
</g>
<g>
</g>
<g>
</g>
<g>
</g>
<g>
</g>
<g>
</g>
<g>
</g>
<g>
</g>
<g>
</g>
<g>
</g>
</svg>
