<?xml version="1.0" encoding="iso-8859-1"?>
<!-- Generator: Adobe Illustrator 18.1.1, SVG Export Plug-In . SVG Version: 6.00 Build 0)  -->
<svg version="1.1" id="Capa_1" xmlns="http://www.w3.org/2000/svg" xmlns:xlink="http://www.w3.org/1999/xlink" x="0px" y="0px"
	 viewBox="0 0 499.233 499.233" style="enable-background:new 0 0 499.233 499.233;" xml:space="preserve">
<g>
	<g>
		<path d="M388.45,232.617H110.783c-9.35,0-17,7.65-17,17c0,9.35,7.65,17,17,17H388.45c9.35,0,17-7.65,17-17
			C405.45,240.267,397.8,232.617,388.45,232.617z"/>
		<path d="M249.617,0C111.917,0,0,111.917,0,249.617s111.917,249.617,249.617,249.617s249.617-111.917,249.617-249.617
			S387.317,0,249.617,0z M249.617,465.233c-119,0-215.617-96.617-215.617-215.617S130.617,34,249.617,34
			s215.617,96.617,215.617,215.617S368.617,465.233,249.617,465.233z"/>
	</g>
</g>
<g>
</g>
<g>
</g>
<g>
</g>
<g>
</g>
<g>
</g>
<g>
</g>
<g>
</g>
<g>
</g>
<g>
</g>
<g>
</g>
<g>
</g>
<g>
</g>
<g>
</g>
<g>
</g>
<g>
</g>
</svg>
