<?xml version="1.0" encoding="iso-8859-1"?>
<!-- Generator: Adobe Illustrator 18.0.0, SVG Export Plug-In . SVG Version: 6.00 Build 0)  -->
<!DOCTYPE svg PUBLIC "-//W3C//DTD SVG 1.1//EN" "http://www.w3.org/Graphics/SVG/1.1/DTD/svg11.dtd">
<svg version="1.1" id="Capa_1" xmlns="http://www.w3.org/2000/svg" xmlns:xlink="http://www.w3.org/1999/xlink" x="0px" y="0px"
	 viewBox="0 0 497.257 497.257" style="enable-background:new 0 0 497.257 497.257;" xml:space="preserve">
<g id="XMLID_228_">
	<path id="XMLID_232_" d="M92.98,233.673V32.227h302.296v201.446l32.227-22.255l41.653-28.764l-41.653-34.938V16.113
		C427.504,7.215,420.287,0,411.389,0H76.865c-8.897,0-16.113,7.215-16.113,16.113V161.49l-32.652,27.377l32.652,22.551
		L92.98,233.673z"/>
	<path id="XMLID_231_" d="M352.27,136.549H144.987c-6.799,0-12.314,5.517-12.314,12.314c0,6.798,5.515,12.314,12.314,12.314H352.27
		c6.798,0,12.314-5.516,12.314-12.314C364.584,142.066,359.068,136.549,352.27,136.549z"/>
	<path id="XMLID_230_" d="M352.27,202.223H144.987c-6.799,0-12.314,5.517-12.314,12.314c0,6.798,5.515,12.313,12.314,12.313H352.27
		c6.798,0,12.314-5.515,12.314-12.313C364.584,207.739,359.068,202.223,352.27,202.223z"/>
	<path id="XMLID_229_" d="M325.341,324.991L452.31,430.38c6.975,5.797,7.936,16.146,2.149,23.121
		c-3.248,3.911-7.928,5.933-12.642,5.933c-3.697,0-7.417-1.242-10.478-3.784L297.275,344.376l-48.646,33.599l-48.648-33.599
		L65.918,455.65c-6.949,5.796-17.309,4.834-23.119-2.148c-5.789-6.975-4.827-17.324,2.148-23.121l126.969-105.389L2.353,207.883
		v144.686v118.962c0,14.205,11.521,25.726,25.726,25.726h441.099c14.205,0,25.726-11.521,25.726-25.726V207.883L325.341,324.991z"/>
	<path id="XMLID_233_" d="M352.27,70.877H144.987c-6.799,0-12.314,5.515-12.314,12.313c0,6.798,5.515,12.314,12.314,12.314H352.27
		c6.798,0,12.314-5.517,12.314-12.314C364.584,76.392,359.068,70.877,352.27,70.877z"/>
</g>
<g>
</g>
<g>
</g>
<g>
</g>
<g>
</g>
<g>
</g>
<g>
</g>
<g>
</g>
<g>
</g>
<g>
</g>
<g>
</g>
<g>
</g>
<g>
</g>
<g>
</g>
<g>
</g>
<g>
</g>
</svg>
