<?xml version="1.0" encoding="iso-8859-1"?>
<!-- Generator: Adobe Illustrator 16.0.0, SVG Export Plug-In . SVG Version: 6.00 Build 0)  -->
<!DOCTYPE svg PUBLIC "-//W3C//DTD SVG 1.1//EN" "http://www.w3.org/Graphics/SVG/1.1/DTD/svg11.dtd">
<svg version="1.1" id="Capa_1" xmlns="http://www.w3.org/2000/svg" xmlns:xlink="http://www.w3.org/1999/xlink" x="0px" y="0px"
	 width="751.012px" height="751.012px" viewBox="0 0 751.012 751.012" style="enable-background:new 0 0 751.012 751.012;"
	 xml:space="preserve">
<g>
	<g id="Shape_391">
		<g>
			<path d="M620.282,233.435C620.003,104.472,515.101,0,385.706,0c-129.569,0-234.6,104.168-234.6,232.642
				c0,10.247,0.816,20.295,2.11,30.181l-83.71,41.663v446.527l204-101.487l204,101.487l204-101.487V202.998L620.282,233.435z
				 M263.306,634.312l-173.4,86.286V314.626l66.527-33.106c6.598,30.542,19.118,58.927,36.499,83.733h-0.023l70.386,96.44v172.618
				H263.306z M467.306,725.657l-183.6-91.334V489.635l102,139.734l81.6-110.918V725.657z M385.706,594.992l-174.298-238.89
				c-25.109-34.796-39.902-77.415-39.902-123.473c0-117.306,95.903-212.405,214.2-212.405v0.105
				c118.297,0,214.2,95.659,214.2,213.605c0,46.302-14.793,89.142-39.902,124.16L385.706,594.992z M661.105,639.395l-173.399,86.263
				V490.742l90.786-123.425l-0.023-0.023c22.766-32.652,37.338-71.389,40.916-113.238l41.709-20.621v405.96H661.105z
				 M385.706,111.629c-67.6,0-122.4,54.532-122.4,121.806c0,67.262,54.8,121.782,122.4,121.782
				c67.6,0,122.399-54.521,122.399-121.782S453.306,111.629,385.706,111.629z M385.706,335.084
				c-56.433,0-102.175-45.533-102.175-101.65c0-56.141,45.742-101.65,102.175-101.65c56.432,0,102.175,45.509,102.175,101.65
				C487.869,289.552,442.126,335.084,385.706,335.084z"/>
		</g>
	</g>
</g>
<g>
</g>
<g>
</g>
<g>
</g>
<g>
</g>
<g>
</g>
<g>
</g>
<g>
</g>
<g>
</g>
<g>
</g>
<g>
</g>
<g>
</g>
<g>
</g>
<g>
</g>
<g>
</g>
<g>
</g>
</svg>
