<?xml version="1.0" encoding="iso-8859-1"?>
<!-- Generator: Adobe Illustrator 16.0.0, SVG Export Plug-In . SVG Version: 6.00 Build 0)  -->
<!DOCTYPE svg PUBLIC "-//W3C//DTD SVG 1.1//EN" "http://www.w3.org/Graphics/SVG/1.1/DTD/svg11.dtd">
<svg version="1.1" id="Capa_1" xmlns="http://www.w3.org/2000/svg" xmlns:xlink="http://www.w3.org/1999/xlink" x="0px" y="0px"
	 width="792px" height="792px" viewBox="0 0 792 792" style="enable-background:new 0 0 792 792;" xml:space="preserve">
<g>
	<g>
		<path d="M334.028,186.3v-56.159h-37.183v94.979l-60.881,63.583l26.846,25.706l34.035-35.535V440h198.311V276.766l33.688,37.257
			l27.576-24.937L400.599,116.78L334.028,186.3z M457.972,254.084v148.732H334.028V240.042l65.801-68.702l74.812,82.745H457.972z"/>
		<path d="M396,0C239.396,0,111.995,127.402,111.995,284.004c0,151.373,258.484,476.118,269.491,489.863L396,792l14.513-18.133
			c11.006-13.745,269.492-338.503,269.492-489.863C680.005,127.402,552.603,0,396,0z M396,732.036
			c-54.944-71.268-246.821-328.785-246.821-448.032c0-136.09,110.731-246.821,246.821-246.821
			c136.089,0,246.822,110.731,246.822,246.821C642.821,403.201,450.944,660.769,396,732.036z"/>
	</g>
</g>
<g>
</g>
<g>
</g>
<g>
</g>
<g>
</g>
<g>
</g>
<g>
</g>
<g>
</g>
<g>
</g>
<g>
</g>
<g>
</g>
<g>
</g>
<g>
</g>
<g>
</g>
<g>
</g>
<g>
</g>
</svg>
