<?xml version="1.0" encoding="iso-8859-1"?>
<!-- Generator: Adobe Illustrator 16.0.0, SVG Export Plug-In . SVG Version: 6.00 Build 0)  -->
<!DOCTYPE svg PUBLIC "-//W3C//DTD SVG 1.1//EN" "http://www.w3.org/Graphics/SVG/1.1/DTD/svg11.dtd">
<svg version="1.1" id="Capa_1" xmlns="http://www.w3.org/2000/svg" xmlns:xlink="http://www.w3.org/1999/xlink" x="0px" y="0px"
	 width="314.014px" height="314.014px" viewBox="0 0 314.014 314.014" style="enable-background:new 0 0 314.014 314.014;"
	 xml:space="preserve">
<g>
	<g id="_x37_7._Messages">
		<g>
			<path d="M157.007,149.36c13.004,0,23.552-10.547,23.552-23.552c0-13.008-10.548-23.549-23.552-23.549
				c-13.01,0-23.552,10.541-23.552,23.549C133.455,138.812,143.997,149.36,157.007,149.36z M282.611,15.904H31.402
				C14.052,15.904,0,29.957,0,47.299v157.007c0,17.349,14.052,31.402,31.402,31.402h47.102v47.099
				c0,17.353,8.736,20.402,19.514,6.809l42.795-53.907h141.799c17.345,0,31.402-14.054,31.402-31.402V47.299
				C314.014,29.957,299.956,15.904,282.611,15.904z M282.611,204.313H31.402V47.299h251.209V204.313z M219.812,149.36
				c13,0,23.552-10.547,23.552-23.552c0-13.008-10.552-23.549-23.552-23.549c-13.013,0-23.552,10.541-23.552,23.549
				C196.26,138.812,206.799,149.36,219.812,149.36z M94.204,149.36c12.999,0,23.552-10.547,23.552-23.552
				c0-13.008-10.553-23.549-23.552-23.549c-13.01,0-23.551,10.541-23.551,23.549C70.653,138.812,81.194,149.36,94.204,149.36z"/>
		</g>
	</g>
</g>
<g>
</g>
<g>
</g>
<g>
</g>
<g>
</g>
<g>
</g>
<g>
</g>
<g>
</g>
<g>
</g>
<g>
</g>
<g>
</g>
<g>
</g>
<g>
</g>
<g>
</g>
<g>
</g>
<g>
</g>
</svg>
