<?xml version='1.0' encoding='utf-8'?>
<!DOCTYPE svg PUBLIC '-//W3C//DTD SVG 1.1//EN' 'http://www.w3.org/Graphics/SVG/1.1/DTD/svg11.dtd'>
<svg version="1.1" xmlns="http://www.w3.org/2000/svg" viewBox="0 0 512 512" xmlns:xlink="http://www.w3.org/1999/xlink" enable-background="new 0 0 512 512">
  <g>
    <g>
      <path d="m289.8,200.2h-49.3v-49.3c0-11.3-9.1-20.4-20.4-20.4-11.3,0-20.4,9.1-20.4,20.4v49.3h-49.3c-11.3,0-20.4,9.1-20.4,20.4 0,11.3 9.1,20.4 20.4,20.4h49.3v49.3c0,11.3 9.1,20.4 20.4,20.4 11.3,0 20.4-9.1 20.4-20.4v-49.3h49.3c11.3,0 20.4-9.1 20.4-20.4 0-11.3-9.2-20.4-20.4-20.4z"/>
      <path d="m220.2,388.7c-92.9,0-168.2-75.2-168.2-168.1s75.3-168.1 168.2-168.1 168.1,75.3 168.1,168.1-75.3,168.1-168.1,168.1zm274.8,78l-113.3-113.3c29.7-36.1 47.6-82.4 47.6-132.8 0-115.5-93.6-209.2-209.2-209.2s-209.1,93.7-209.1,209.2 93.6,209.2 209.2,209.2c50.4,0 96.6-17.8 132.7-47.5l113.3,113.3c5.2,5.3 21.1,7.9 28.9,0 7.9-8 7.9-20.9-0.1-28.9z"/>
    </g>
  </g>
</svg>
