<?xml version='1.0' encoding='iso-8859-1'?>
<!DOCTYPE svg PUBLIC '-//W3C//DTD SVG 1.1//EN' 'http://www.w3.org/Graphics/SVG/1.1/DTD/svg11.dtd'>
<svg version="1.1" xmlns="http://www.w3.org/2000/svg" viewBox="0 0 512 512" xmlns:xlink="http://www.w3.org/1999/xlink" enable-background="new 0 0 512 512">
  <path d="m412.324,209.102c-5.547-10.516-16.438-17.102-28.328-17.102h-60.219l72.844-145.688c4.953-9.922 4.422-21.703-1.406-31.133-5.829-9.437-16.125-15.179-27.219-15.179h-160c-13.781,0-26,8.813-30.359,21.883l-80,240c-3.25,9.758-1.609,20.484 4.406,28.828 6.016,8.344 15.672,13.289 25.953,13.289h74.703l-26.328,171.133c-2.266,14.75 5.953,29.117 19.828,34.617 3.844,1.523 7.844,2.25 11.781,2.25 10.297,0 20.266-4.977 26.391-13.867l176-256c6.734-9.797 7.484-22.516 1.953-33.031z"/>
</svg>
