<?xml version='1.0' encoding='iso-8859-1'?>
<!DOCTYPE svg PUBLIC '-//W3C//DTD SVG 1.1//EN' 'http://www.w3.org/Graphics/SVG/1.1/DTD/svg11.dtd'>
<svg version="1.1" xmlns="http://www.w3.org/2000/svg" viewBox="0 0 270.572 270.572" xmlns:xlink="http://www.w3.org/1999/xlink" enable-background="new 0 0 270.572 270.572">
  <g>
    <path d="m234.872,241.383h-23.589v-60.12c15.339-2.831 26.999-16.296 26.999-32.441v-67.318c0-28.841-10.071-57.007-28.359-79.309-1.14-1.389-2.843-2.195-4.64-2.195s-3.5,0.806-4.64,2.195c-18.287,22.302-28.358,50.467-28.358,79.309v67.317c0,16.146 11.659,29.611 26.998,32.441v60.12h-57.997v-60.12c15.339-2.831 26.999-16.296 26.999-32.441v-67.317c0-28.841-10.071-57.007-28.359-79.309-1.14-1.39-2.843-2.195-4.64-2.195s-3.5,0.806-4.64,2.195c-18.288,22.302-28.359,50.468-28.359,79.309v67.317c0,16.146 11.66,29.611 26.999,32.441v60.12h-57.997v-60.12c15.339-2.831 26.998-16.296 26.998-32.441v-67.317c0-28.842-10.071-57.007-28.358-79.309-1.14-1.389-2.843-2.195-4.64-2.195s-3.5,0.806-4.64,2.195c-18.288,22.302-28.359,50.468-28.359,79.309v67.317c0,16.146 11.66,29.611 26.999,32.441v60.12h-23.589c-3.313,0-6,2.687-6,6v17.189c0,3.313 2.687,6 6,6h199.172c3.313,0 6-2.687 6-6v-17.189c0-3.313-2.686-5.999-6-5.999zm-50.587-92.562v-67.317c0-23.521 7.41-46.548 20.998-65.631 13.588,19.084 20.999,42.109 20.999,65.631v67.317c0,11.578-9.42,20.998-20.999,20.998-11.578,0-20.998-9.42-20.998-20.998zm-69.998,0v-67.317c0-23.521 7.411-46.547 20.999-65.631 13.588,19.084 20.999,42.109 20.999,65.631v67.317c0,11.578-9.42,20.998-20.999,20.998s-20.999-9.42-20.999-20.998zm-69.997,0v-67.317c7.10543e-15-23.521 7.411-46.547 20.999-65.631 13.588,19.083 20.998,42.109 20.998,65.631v67.317c0,11.578-9.42,20.998-20.998,20.998-11.579,0-20.999-9.42-20.999-20.998zm184.582,109.751h-187.172v-5.189h187.172v5.189z"/>
  </g>
</svg>
