<?xml version="1.0" encoding="iso-8859-1"?>
<!-- Generator: Adobe Illustrator 18.0.0, SVG Export Plug-In . SVG Version: 6.00 Build 0)  -->
<!DOCTYPE svg PUBLIC "-//W3C//DTD SVG 1.1//EN" "http://www.w3.org/Graphics/SVG/1.1/DTD/svg11.dtd">
<svg version="1.1" id="Capa_1" xmlns="http://www.w3.org/2000/svg" xmlns:xlink="http://www.w3.org/1999/xlink" x="0px" y="0px"
	 viewBox="0 0 219.781 219.781" style="enable-background:new 0 0 219.781 219.781;" xml:space="preserve">
<path d="M193.692,168.797L163.28,129.29h8.896c0.006,0,0.014,0,0.02,0c4.143,0,7.5-3.358,7.5-7.5c0-1.898-0.704-3.631-1.867-4.953
	L149.264,79.73h10.455c0.008,0,0.015,0,0.02,0c4.143,0,7.5-3.358,7.5-7.5c0-1.898-0.704-3.631-1.867-4.953L115.833,2.925
	C114.413,1.081,112.217,0,109.889,0c-2.328,0-4.523,1.081-5.943,2.925l-49.83,64.73c-1.743,2.265-2.048,5.323-0.786,7.888
	c1.262,2.563,3.871,4.188,6.729,4.188h10.455l-28.855,37.485c-1.743,2.264-2.048,5.323-0.786,7.887
	c1.262,2.564,3.871,4.188,6.729,4.188h8.899l-30.412,39.507c-1.743,2.264-2.048,5.323-0.786,7.887
	c1.262,2.564,3.871,4.188,6.729,4.188h50.904v31.409c0,4.142,3.358,7.5,7.5,7.5h38.908c4.143,0,7.5-3.358,7.5-7.5v-31.409h50.904
	c2.857,0,5.467-1.624,6.729-4.188C195.74,174.12,195.435,171.061,193.692,168.797z M121.845,204.781H97.936v-23.909h23.908V204.781z
	 M129.345,165.872H90.436H47.27l30.412-39.507c1.743-2.264,2.048-5.323,0.786-7.887c-1.262-2.564-3.871-4.188-6.729-4.188h-8.898
	l28.855-37.485c1.743-2.264,2.048-5.323,0.786-7.887c-1.262-2.564-3.871-4.188-6.729-4.188H75.298l34.592-44.936l34.592,44.936
	h-10.455c-2.857,0-5.467,1.624-6.729,4.188c-1.262,2.564-0.957,5.623,0.786,7.887l28.856,37.485h-8.897
	c-2.857,0-5.467,1.624-6.729,4.188c-1.262,2.564-0.957,5.623,0.786,7.887l30.412,39.507H129.345z"/>
<g>
</g>
<g>
</g>
<g>
</g>
<g>
</g>
<g>
</g>
<g>
</g>
<g>
</g>
<g>
</g>
<g>
</g>
<g>
</g>
<g>
</g>
<g>
</g>
<g>
</g>
<g>
</g>
<g>
</g>
</svg>
