<?xml version="1.0" encoding="iso-8859-1"?>
<!-- Generator: Adobe Illustrator 18.1.1, SVG Export Plug-In . SVG Version: 6.00 Build 0)  -->
<svg version="1.1" id="Capa_1" xmlns="http://www.w3.org/2000/svg" xmlns:xlink="http://www.w3.org/1999/xlink" x="0px" y="0px"
	 viewBox="0 0 193.741 193.741" style="enable-background:new 0 0 193.741 193.741;" xml:space="preserve">
<g>
	<g>
		<path style="fill:#010002;" d="M99.206,2.877L96.869,0l-2.333,2.881c-2.759,3.4-67.479,83.505-67.479,121.044
			c0,38.494,31.322,69.816,69.816,69.816c38.491,0,69.813-31.322,69.813-69.816C166.685,86.376,101.958,6.277,99.206,2.877z
			 M96.869,187.718c-35.177,0-63.793-28.62-63.793-63.793c0-31.469,51.421-98.615,63.793-114.312
			c12.376,15.697,63.793,82.833,63.793,114.312C160.662,159.098,132.042,187.718,96.869,187.718z"/>
		<path style="fill:#010002;" d="M58.604,107.745l0.329-0.956l-5.68-1.979l-0.333,0.941c-7.054,20.181,0.387,48.926,22.733,59.566
			l0.905,0.429l2.588-5.426l-0.905-0.429C59.098,150.773,52.527,125.095,58.604,107.745z"/>
	</g>
</g>
<g>
</g>
<g>
</g>
<g>
</g>
<g>
</g>
<g>
</g>
<g>
</g>
<g>
</g>
<g>
</g>
<g>
</g>
<g>
</g>
<g>
</g>
<g>
</g>
<g>
</g>
<g>
</g>
<g>
</g>
</svg>
