<?xml version="1.0" encoding="iso-8859-1"?>
<!-- Generator: Adobe Illustrator 17.1.0, SVG Export Plug-In . SVG Version: 6.00 Build 0)  -->
<!DOCTYPE svg PUBLIC "-//W3C//DTD SVG 1.1//EN" "http://www.w3.org/Graphics/SVG/1.1/DTD/svg11.dtd">
<svg version="1.1" id="Capa_1" xmlns="http://www.w3.org/2000/svg" xmlns:xlink="http://www.w3.org/1999/xlink" x="0px" y="0px"
	 viewBox="0 0 470 470" style="enable-background:new 0 0 470 470;" xml:space="preserve">
<g>
	<path d="M361.087,183.592c-4.411,0-8,3.589-8,8s3.589,8,8,8s8-3.589,8-8S365.498,183.592,361.087,183.592z"/>
	<path d="M152.966,219.834c-4.411,0-8,3.589-8,8s3.589,8,8,8s8-3.589,8-8S157.377,219.834,152.966,219.834z"/>
	<path d="M142.966,249.834c-4.411,0-8,3.589-8,8s3.589,8,8,8s8-3.589,8-8S147.377,249.834,142.966,249.834z"/>
	<path d="M464.719,11.316c-0.56-3.07-2.962-5.473-6.032-6.032C439.464,1.778,419.798,0,400.234,0
		c-86.568,0-167.949,33.705-229.151,94.907c-74.311,74.31-107.904,180.1-90.304,283.709L2.2,457.197
		c-2.929,2.929-2.929,7.677,0,10.606C3.664,469.268,5.584,470,7.503,470s3.839-0.732,5.303-2.197l78.593-78.593
		c17.976,3.051,36.302,4.616,54.545,4.617c86.566,0,167.951-33.708,229.151-94.908C450.337,223.678,483.841,116.163,464.719,11.316z
		 M364.488,288.313c-58.37,58.37-135.984,90.515-218.543,90.514c-13.812,0-27.674-0.945-41.38-2.783l125.466-125.466h144.125
		c4.143,0,7.5-3.358,7.5-7.5s-3.357-7.5-7.5-7.5H245.031l91.356-91.356c2.929-2.929,2.929-7.677,0-10.606
		c-2.93-2.929-7.678-2.929-10.607,0l-91.356,91.356V95.775c0-4.142-3.358-7.5-7.5-7.5s-7.5,3.358-7.5,7.5v144.197L93.942,365.454
		c-12.813-95.376,19.424-191.616,87.748-259.94C240.059,47.145,317.672,15,400.234,15c16.922,0,33.927,1.394,50.621,4.147
		C467.092,117.511,435.018,217.784,364.488,288.313z"/>
	<path d="M425.57,33.83l-78.577,78.573c-2.93,2.929-2.93,7.678-0.001,10.607c1.465,1.465,3.384,2.197,5.304,2.197
		c1.919,0,3.839-0.732,5.303-2.197l78.577-78.573c2.93-2.929,2.93-7.678,0.001-10.607C433.248,30.902,428.499,30.901,425.57,33.83z"
		/>
</g>
<g>
</g>
<g>
</g>
<g>
</g>
<g>
</g>
<g>
</g>
<g>
</g>
<g>
</g>
<g>
</g>
<g>
</g>
<g>
</g>
<g>
</g>
<g>
</g>
<g>
</g>
<g>
</g>
<g>
</g>
</svg>
