<?xml version="1.0" encoding="iso-8859-1"?>
<!-- Generator: Adobe Illustrator 19.1.0, SVG Export Plug-In . SVG Version: 6.00 Build 0)  -->
<svg version="1.1" id="Capa_1" xmlns="http://www.w3.org/2000/svg" xmlns:xlink="http://www.w3.org/1999/xlink" x="0px" y="0px"
	 viewBox="0 0 299.444 299.444" style="enable-background:new 0 0 299.444 299.444;" xml:space="preserve">
<g>
	<path d="M245.097,221.174l-64.342-64.395l54.016-0.477c2.489,0,4.766-1.536,5.719-3.866s0.424-4.978-1.377-6.778l-57.034-57.034
		l44.484-0.371c2.489,0,4.766-1.536,5.719-3.866s0.424-4.978-1.377-6.778L155.177,1.827c-2.436-2.436-6.408-2.436-8.844,0
		L69.228,78.932c-1.801,1.801-2.33,4.501-1.324,6.831c0.953,2.33,3.336,3.813,5.825,3.813l44.113-0.371L59.854,147.14
		c-1.801,1.801-2.33,4.501-1.324,6.831c0.953,2.33,3.389,3.919,5.825,3.813l53.857-0.477l-63.866,63.866
		c-1.801,1.801-2.33,4.448-1.377,6.778c0.953,2.33,3.23,3.866,5.772,3.866h84.731v61.377c0,3.442,2.807,6.249,6.249,6.249
		c3.442,0,6.249-2.807,6.249-6.249v-61.377h84.731c2.542,0,4.819-1.536,5.772-3.866
		C247.427,225.622,246.898,222.974,245.097,221.174z M149.722,219.373L149.722,219.373L149.722,219.373H73.835l63.972-63.972
		c1.801-1.801,2.33-4.501,1.324-6.831c-0.953-2.33-3.495-3.707-5.825-3.813l-53.857,0.424l57.988-57.988
		c1.801-1.801,2.33-4.501,1.324-6.831c-0.953-2.33-3.442-3.919-5.825-3.813L88.822,76.92l61.906-61.853l60.847,60.847l-44.484,0.371
		c-2.489,0-4.766,1.536-5.719,3.866c-0.953,2.33-0.424,4.978,1.377,6.778l57.034,57.034l-54.016,0.477
		c-2.489,0-4.766,1.536-5.719,3.866c-0.953,2.33-0.424,4.978,1.377,6.778l64.289,64.289L149.722,219.373L149.722,219.373z"/>
</g>
<g>
</g>
<g>
</g>
<g>
</g>
<g>
</g>
<g>
</g>
<g>
</g>
<g>
</g>
<g>
</g>
<g>
</g>
<g>
</g>
<g>
</g>
<g>
</g>
<g>
</g>
<g>
</g>
<g>
</g>
</svg>
