<?xml version="1.0" encoding="iso-8859-1"?>
<!-- Generator: Adobe Illustrator 19.1.0, SVG Export Plug-In . SVG Version: 6.00 Build 0)  -->
<svg version="1.1" id="Capa_1" xmlns="http://www.w3.org/2000/svg" xmlns:xlink="http://www.w3.org/1999/xlink" x="0px" y="0px"
	 viewBox="0 0 543.42 543.42" style="enable-background:new 0 0 543.42 543.42;" xml:space="preserve">
<g>
	<g>
		<path d="M391.904,503.002c22.201,0,40.542-18.34,40.542-40.542c0-20.271-15.444-42.472-34.75-50.195l-102.32-39.576
			c-2.896-0.965-5.792-2.896-5.792-5.792c0-2.896,0.965-4.826,2.896-7.722c1.931-2.896,54.056-62.743,54.056-131.278
			c0-71.431-58.882-130.313-130.313-130.313S85.91,156.466,85.91,227.897c0,68.535,51.16,128.382,54.056,131.278
			c1.931,2.896,3.861,5.792,2.896,7.722c-0.965,1.931-2.896,3.861-5.792,5.792L34.75,412.265C15.444,419.988,0,442.189,0,462.46
			c0,22.201,18.34,40.542,40.542,40.542H391.904z M23.167,462.46c0-10.618,8.688-24.132,19.306-27.993l102.32-39.576
			c10.618-3.861,18.34-12.549,21.236-22.201c2.896-9.653,0-20.271-7.722-28.958c0-0.965-47.299-55.986-47.299-115.834
			c0-58.882,47.299-106.181,106.181-106.181s106.181,47.299,106.181,106.181S276.07,342.765,276.07,343.73
			c-7.722,8.688-10.618,19.306-7.722,28.958s9.653,18.34,21.236,22.201l102.32,39.576c10.618,3.861,19.306,17.375,19.306,27.993
			c0,8.688-7.722,16.41-17.375,16.41H41.507C30.889,478.87,23.167,471.147,23.167,462.46z"/>
		<path d="M540.557,388.133c-12.549-35.715-58.882-44.403-90.736-56.952c-10.618-3.861-34.75-8.688-43.438-17.375
			c-11.583-11.583,14.479-37.646,20.271-47.299c29.924-51.16,43.438-114.868,9.653-166.994
			C397.696,39.667,320.473,24.223,259.66,58.007c-13.514,7.722-0.965,27.993,12.549,21.236
			c73.361-41.507,166.028,12.549,160.237,98.459c-1.931,32.82-17.375,63.709-34.75,90.736
			c-8.688,13.514-24.132,26.063-21.236,44.403c2.896,17.375,18.34,23.167,32.82,28.958c18.34,7.722,36.681,14.479,55.986,22.201
			c14.479,5.792,34.75,9.653,45.368,22.201c16.41,18.34,1.931,36.681-18.34,36.681c-9.653,0-19.306,0-27.993,0
			c-15.444,0-15.444,24.132,0,24.132c15.444,0,32.82,2.896,48.264-0.965C537.661,438.328,549.245,411.3,540.557,388.133z"/>
	</g>
	<g>
	</g>
	<g>
	</g>
	<g>
	</g>
	<g>
	</g>
	<g>
	</g>
	<g>
	</g>
	<g>
	</g>
	<g>
	</g>
	<g>
	</g>
	<g>
	</g>
	<g>
	</g>
	<g>
	</g>
	<g>
	</g>
	<g>
	</g>
	<g>
	</g>
</g>
<g>
</g>
<g>
</g>
<g>
</g>
<g>
</g>
<g>
</g>
<g>
</g>
<g>
</g>
<g>
</g>
<g>
</g>
<g>
</g>
<g>
</g>
<g>
</g>
<g>
</g>
<g>
</g>
<g>
</g>
</svg>
