<?xml version="1.0" encoding="iso-8859-1"?>
<!-- Generator: Adobe Illustrator 18.0.0, SVG Export Plug-In . SVG Version: 6.00 Build 0)  -->
<!DOCTYPE svg PUBLIC "-//W3C//DTD SVG 1.1//EN" "http://www.w3.org/Graphics/SVG/1.1/DTD/svg11.dtd">
<svg version="1.1" id="Capa_1" xmlns="http://www.w3.org/2000/svg" xmlns:xlink="http://www.w3.org/1999/xlink" x="0px" y="0px"
	 viewBox="0 0 313.725 313.725" style="enable-background:new 0 0 313.725 313.725;" xml:space="preserve">
<g>
	<path d="M163.897,236.047h-14.071c-10.225,0-18.863-8.69-18.863-18.977v-60.172c-11.648-8.129-18.665-21.255-18.665-35.546
		c0-24.082,19.99-43.675,44.563-43.675c24.574,0,44.566,19.593,44.566,43.675c0,14.29-7.018,27.417-18.668,35.546v60.172
		C182.759,227.356,174.121,236.047,163.897,236.047z M150.963,216.047h11.796v-64.795c0-3.771,2.122-7.222,5.487-8.924
		c8.13-4.111,13.181-12.149,13.181-20.976c0-13.055-11.021-23.675-24.566-23.675c-13.544,0-24.563,10.62-24.563,23.675
		c0,8.827,5.05,16.865,13.178,20.976c3.365,1.702,5.487,5.152,5.487,8.924V216.047z"/>
	<path d="M267.438,313.725H46.285c-24.105,0-43.717-19.881-43.717-44.318V44.316C2.568,19.88,22.18,0,46.285,0h221.152
		c24.106,0,43.719,19.88,43.719,44.316v225.09C311.156,293.844,291.544,313.725,267.438,313.725z M46.285,20
		c-13.077,0-23.717,10.908-23.717,24.316v225.09c0,13.409,10.64,24.318,23.717,24.318h221.152c13.078,0,23.719-10.909,23.719-24.318
		V44.316c0-13.408-10.641-24.316-23.719-24.316H46.285z"/>
</g>
<g>
</g>
<g>
</g>
<g>
</g>
<g>
</g>
<g>
</g>
<g>
</g>
<g>
</g>
<g>
</g>
<g>
</g>
<g>
</g>
<g>
</g>
<g>
</g>
<g>
</g>
<g>
</g>
<g>
</g>
</svg>
