<?xml version="1.0" encoding="iso-8859-1"?>
<!-- Generator: Adobe Illustrator 16.0.0, SVG Export Plug-In . SVG Version: 6.00 Build 0)  -->
<!DOCTYPE svg PUBLIC "-//W3C//DTD SVG 1.1//EN" "http://www.w3.org/Graphics/SVG/1.1/DTD/svg11.dtd">
<svg version="1.1" id="Capa_1" xmlns="http://www.w3.org/2000/svg" xmlns:xlink="http://www.w3.org/1999/xlink" x="0px" y="0px"
	 width="70.101px" height="70.101px" viewBox="0 0 70.101 70.101" style="enable-background:new 0 0 70.101 70.101;"
	 xml:space="preserve">
<g>
	<g id="_x32_2">
		<g>
			<path d="M47.767,19.232l-7.605,0.017l-2.331-7.253c-0.403-1.253-1.555-2.094-2.865-2.094c-1.312,0-2.465,0.841-2.865,2.091
				l-2.333,7.256l-7.61-0.017c-1.309,0-2.46,0.836-2.865,2.081c-0.403,1.25,0.038,2.606,1.102,3.373l6.165,4.459l-2.373,7.238
				c-0.406,1.253,0.033,2.608,1.092,3.376c1.032,0.759,2.503,0.763,3.549-0.003l6.14-4.492l6.142,4.495
				c0.521,0.38,1.135,0.579,1.772,0.579c0.645,0,1.258-0.199,1.77-0.574c1.066-0.773,1.505-2.133,1.095-3.383l-2.371-7.236
				l6.166-4.461c1.062-0.772,1.504-2.128,1.099-3.368C50.237,20.068,49.084,19.232,47.767,19.232z M48.099,22.688l-6.894,4.988
				c-0.433,0.312-0.614,0.873-0.448,1.383l2.651,8.091c0.073,0.229-0.005,0.479-0.204,0.623c-0.234,0.168-0.41,0.17-0.65-0.002
				l-6.863-5.024c-0.217-0.158-0.471-0.238-0.725-0.238s-0.509,0.08-0.725,0.238l-6.861,5.021c-0.166,0.118-0.355,0.223-0.658,0
				c-0.194-0.139-0.273-0.389-0.201-0.617l2.652-8.091c0.167-0.51-0.015-1.07-0.447-1.383l-6.893-4.985
				c-0.196-0.142-0.278-0.39-0.204-0.615c0.074-0.233,0.283-0.383,0.53-0.383l8.501,0.02h0.003c0.532,0,1.005-0.344,1.169-0.854
				l2.605-8.111c0.149-0.459,0.907-0.461,1.057,0.003l2.604,8.108c0.164,0.51,0.638,0.854,1.17,0.854h0.002l8.506-0.02
				c0.242,0,0.451,0.151,0.525,0.383C48.375,22.302,48.292,22.547,48.099,22.688z M35.052,0C20.247,0,8.203,12.063,8.203,26.894
				c0,9.89,5.328,18.861,13.959,23.592V68.87c0,0.469,0.267,0.899,0.688,1.106c0.415,0.203,0.919,0.154,1.294-0.134l11.011-8.546
				l11.024,8.546c0.219,0.171,0.485,0.257,0.752,0.257c0.186,0,0.369-0.041,0.541-0.123c0.422-0.207,0.688-0.639,0.688-1.106V50.363
				c8.493-4.766,13.738-13.688,13.738-23.47C61.9,12.063,49.857,0,35.052,0z M46.351,48.544c-0.347,0.183-0.58,0.522-0.64,0.908
				c-0.015,0.097-0.017,0.192-0.01,0.288v16.619l-9.797-7.596c-0.222-0.17-0.484-0.257-0.751-0.257c-0.267,0-0.53,0.087-0.753,0.257
				l-9.783,7.596V49.745c0-0.461-0.259-0.884-0.669-1.097c-8.195-4.203-13.288-12.541-13.288-21.754
				c0-13.472,10.941-24.432,24.391-24.432c13.45,0,24.392,10.96,24.392,24.432C59.443,36.012,54.427,44.309,46.351,48.544z"/>
		</g>
	</g>
</g>
<g>
</g>
<g>
</g>
<g>
</g>
<g>
</g>
<g>
</g>
<g>
</g>
<g>
</g>
<g>
</g>
<g>
</g>
<g>
</g>
<g>
</g>
<g>
</g>
<g>
</g>
<g>
</g>
<g>
</g>
</svg>
