<?xml version="1.0" encoding="iso-8859-1"?>
<!-- Generator: Adobe Illustrator 16.0.0, SVG Export Plug-In . SVG Version: 6.00 Build 0)  -->
<!DOCTYPE svg PUBLIC "-//W3C//DTD SVG 1.1//EN" "http://www.w3.org/Graphics/SVG/1.1/DTD/svg11.dtd">
<svg version="1.1" id="Capa_1" xmlns="http://www.w3.org/2000/svg" xmlns:xlink="http://www.w3.org/1999/xlink" x="0px" y="0px"
	 width="792px" height="792px" viewBox="0 0 792 792" style="enable-background:new 0 0 792 792;" xml:space="preserve">
<g>
	<g>
		<path d="M395.98,792c-156.124,0-283.174-127.051-283.174-283.175c0-150.551,256.79-487.352,267.702-501.576
			c7.366-9.665,23.54-9.665,30.944,0c10.912,14.225,267.742,351.025,267.742,501.576C679.194,664.949,552.144,792,395.98,792z
			 M395.98,51.639c-55.926,75.763-244.202,339.606-244.202,457.187c0,134.65,109.552,244.202,244.202,244.202
			c134.689,0,244.242-109.552,244.242-244.202C640.222,391.245,451.944,127.401,395.98,51.639z"/>
		<path d="M411.179,717.835c-8.262,0-15.939-5.3-18.589-13.602c-3.235-10.249,2.417-21.2,12.666-24.475
			c78.023-24.864,138.041-86.714,160.605-165.438c2.963-10.405,13.797-16.446,24.086-13.367
			c10.328,2.962,16.33,13.757,13.367,24.085c-26.111,91.312-95.756,163.062-186.211,191.861
			C415.116,717.562,413.167,717.835,411.179,717.835z"/>
	</g>
</g>
<g>
</g>
<g>
</g>
<g>
</g>
<g>
</g>
<g>
</g>
<g>
</g>
<g>
</g>
<g>
</g>
<g>
</g>
<g>
</g>
<g>
</g>
<g>
</g>
<g>
</g>
<g>
</g>
<g>
</g>
</svg>
