<?xml version="1.0" encoding="iso-8859-1"?>
<!-- Generator: Adobe Illustrator 18.0.0, SVG Export Plug-In . SVG Version: 6.00 Build 0)  -->
<!DOCTYPE svg PUBLIC "-//W3C//DTD SVG 1.1//EN" "http://www.w3.org/Graphics/SVG/1.1/DTD/svg11.dtd">
<svg version="1.1" id="Capa_1" xmlns="http://www.w3.org/2000/svg" xmlns:xlink="http://www.w3.org/1999/xlink" x="0px" y="0px"
	 viewBox="0 0 244.937 244.937" style="enable-background:new 0 0 244.937 244.937;" xml:space="preserve">
<path d="M122.469,229.805l103.719-97.274l0.345-0.345c25.735-27.493,24.307-70.798-3.188-96.538l-2.225-2.081
	c-12.699-11.888-29.27-18.434-46.658-18.434c-18.832,0-37.012,7.882-49.811,21.555l-2.183,2.272l-2.116-2.203
	c-12.865-13.743-31.045-21.625-49.877-21.625c-17.389,0-33.959,6.546-46.656,18.432L21.59,35.65
	c-27.491,25.736-28.921,69.042-3.186,96.536L122.469,229.805z M31.839,46.602l2.229-2.084c9.91-9.277,22.84-14.385,36.408-14.385
	c14.914,0,28.738,5.993,38.992,16.946l13.001,13.535l13.067-13.605c10.188-10.883,24.012-16.876,38.926-16.876
	c13.567,0,26.497,5.108,36.41,14.387l2.224,2.08c21.396,20.031,22.563,53.699,2.646,75.162l-93.273,87.478l-93.274-87.478
	C9.28,100.298,10.446,66.63,31.839,46.602z"/>
<g>
</g>
<g>
</g>
<g>
</g>
<g>
</g>
<g>
</g>
<g>
</g>
<g>
</g>
<g>
</g>
<g>
</g>
<g>
</g>
<g>
</g>
<g>
</g>
<g>
</g>
<g>
</g>
<g>
</g>
</svg>
