<?xml version="1.0" encoding="iso-8859-1"?>
<!-- Generator: Adobe Illustrator 18.0.0, SVG Export Plug-In . SVG Version: 6.00 Build 0)  -->
<!DOCTYPE svg PUBLIC "-//W3C//DTD SVG 1.1//EN" "http://www.w3.org/Graphics/SVG/1.1/DTD/svg11.dtd">
<svg version="1.1" id="Capa_1" xmlns="http://www.w3.org/2000/svg" xmlns:xlink="http://www.w3.org/1999/xlink" x="0px" y="0px"
	 viewBox="0 0 297 297" style="enable-background:new 0 0 297 297;" xml:space="preserve">
<path d="M246.348,16.308c-8.357,0-16.152,2.436-22.732,6.618V9.884c0-5.458-4.426-9.884-9.884-9.884H83.27
	c-5.458,0-9.884,4.426-9.884,9.884v13.042c-6.579-4.183-14.374-6.618-22.731-6.618c-23.435,0-42.5,19.065-42.5,42.499
	s19.065,42.5,42.5,42.5h16.308c3.542,0,6.424,2.882,6.424,6.424s-2.882,6.424-6.424,6.424c-5.458,0-9.884,4.426-9.884,9.884
	c0,5.458,4.426,9.884,9.884,9.884c4.728,0,9.162-1.266,12.995-3.465c3.574,9.877,8.542,18.813,14.803,26.381
	c7.698,9.306,17.005,16.281,27.311,20.656c-0.446,5.558-1.727,15.409-5.406,25.03c-6.635,17.351-17.559,25.785-33.396,25.785H66.962
	c-5.458,0-9.884,4.425-9.884,9.884v48.923c0,5.458,4.426,9.884,9.884,9.884H230.04c5.458,0,9.884-4.426,9.884-9.884v-48.923
	c0-5.459-4.426-9.884-9.884-9.884h-16.308c-15.837,0-26.761-8.435-33.395-25.785c-3.68-9.622-4.959-19.473-5.405-25.03
	c10.307-4.375,19.612-11.35,27.31-20.656c6.262-7.567,11.23-16.504,14.804-26.381c3.833,2.199,8.268,3.465,12.995,3.465
	c5.458,0,9.884-4.426,9.884-9.884c0-5.458-4.426-9.884-9.884-9.884c-3.542,0-6.424-2.882-6.424-6.424s2.882-6.424,6.424-6.424
	h16.308c23.434,0,42.498-19.066,42.498-42.5S269.781,16.308,246.348,16.308z M66.962,81.539H50.654
	c-12.535,0-22.733-10.197-22.733-22.733c0-12.534,10.198-22.731,22.733-22.731c12.534,0,22.731,10.197,22.731,22.731v23.531
	C71.329,81.818,69.178,81.539,66.962,81.539z M220.156,248.076v29.156H76.846v-29.156H220.156z M161.67,209.048
	c2.785,7.428,6.358,13.869,10.633,19.262h-47.604c4.274-5.393,7.848-11.834,10.633-19.262c3.703-9.876,5.372-19.68,6.125-26.577
	c2.323,0.239,4.672,0.375,7.044,0.375c2.372,0,4.721-0.136,7.044-0.375C156.298,189.368,157.967,199.172,161.67,209.048z
	 M148.501,163.078c-32.07,0-55.348-30.135-55.348-71.655V19.768h110.695v71.655C203.849,132.943,180.571,163.078,148.501,163.078z
	 M246.348,81.539H230.04c-2.216,0-4.367,0.279-6.424,0.799V58.807c0-12.534,10.197-22.731,22.732-22.731
	c12.534,0,22.731,10.197,22.731,22.731C269.079,71.342,258.882,81.539,246.348,81.539z"/>
<g>
</g>
<g>
</g>
<g>
</g>
<g>
</g>
<g>
</g>
<g>
</g>
<g>
</g>
<g>
</g>
<g>
</g>
<g>
</g>
<g>
</g>
<g>
</g>
<g>
</g>
<g>
</g>
<g>
</g>
</svg>
