<?xml version="1.0" encoding="iso-8859-1"?>
<!-- Generator: Adobe Illustrator 19.1.0, SVG Export Plug-In . SVG Version: 6.00 Build 0)  -->
<svg version="1.1" id="Capa_1" xmlns="http://www.w3.org/2000/svg" xmlns:xlink="http://www.w3.org/1999/xlink" x="0px" y="0px"
	 viewBox="0 0 32.878 32.878" style="enable-background:new 0 0 32.878 32.878;" xml:space="preserve">
<g>
	<g>
		<path style="fill:#010002;" d="M15.234,31.672C6.834,31.672,0,24.838,0,16.439S6.834,1.206,15.234,1.206
			c2.526,0,5.029,0.632,7.238,1.827c1.635,0.884,2.247,2.934,1.362,4.569c-0.59,1.092-1.728,1.769-2.968,1.769
			c-0.557,0-1.11-0.141-1.602-0.406C18.037,8.3,16.643,7.95,15.234,7.95c-4.681,0-8.49,3.809-8.49,8.489s3.809,8.489,8.49,8.489
			c3.409,0,6.462-2.054,7.791-5.117h-3.934c-1.859,0-3.372-1.513-3.372-3.372s1.513-3.372,3.372-3.372h8.004
			c1.859,0,3.372,1.513,3.372,3.372C30.467,24.838,23.634,31.672,15.234,31.672z M15.234,2.98c-7.421,0-13.459,6.038-13.459,13.459
			s6.038,13.458,13.459,13.458s13.458-6.037,13.458-13.458c0-0.881-0.716-1.598-1.597-1.598h-8.004
			c-0.881,0-1.597,0.717-1.597,1.598c0,0.881,0.716,1.597,1.597,1.597h6.349l-0.309,1.123c-1.221,4.441-5.292,7.544-9.898,7.544
			c-5.66,0-10.265-4.604-10.265-10.264S9.574,6.174,15.234,6.174c1.703,0,3.389,0.426,4.875,1.229
			c0.236,0.128,0.492,0.192,0.758,0.192c0.588,0,1.128-0.32,1.407-0.838c0.419-0.774,0.129-1.746-0.646-2.165
			C19.677,3.538,17.466,2.98,15.234,2.98z"/>
	</g>
	<g>
		<path style="fill:#010002;" d="M31.813,5.317h-1.775V3.541c0-0.489-0.397-0.887-0.887-0.887c-0.49,0-0.888,0.397-0.888,0.887
			v1.775h-1.775c-0.49,0-0.887,0.398-0.887,0.887c0,0.49,0.397,0.889,0.887,0.889h1.775v1.774c0,0.49,0.397,0.889,0.888,0.889
			c0.49,0,0.887-0.398,0.887-0.889V7.092h1.775c0.49,0,0.887-0.398,0.887-0.889C32.7,5.714,32.303,5.317,31.813,5.317z"/>
		<path style="fill:#010002;" d="M29.151,9.931c-0.587,0-1.065-0.477-1.065-1.065V7.269h-1.598c-0.587,0-1.065-0.478-1.065-1.065
			c0-0.586,0.478-1.064,1.065-1.064h1.598V3.541c0-0.586,0.478-1.064,1.065-1.064c0.587,0,1.064,0.478,1.064,1.064v1.598h1.598
			c0.587,0,1.065,0.478,1.065,1.064c0,0.588-0.478,1.065-1.065,1.065h-1.598v1.597C30.215,9.454,29.738,9.931,29.151,9.931z
			 M26.488,5.495c-0.391,0-0.71,0.318-0.71,0.709c0,0.392,0.318,0.711,0.71,0.711h1.953v1.951c0,0.392,0.318,0.711,0.71,0.711
			c0.391,0,0.709-0.318,0.709-0.711V6.915h1.953c0.391,0,0.709-0.318,0.709-0.711c0-0.391-0.318-0.709-0.709-0.709H29.86V3.541
			c0-0.391-0.318-0.709-0.709-0.709c-0.392,0-0.71,0.318-0.71,0.709v1.953H26.488z"/>
	</g>
</g>
<g>
</g>
<g>
</g>
<g>
</g>
<g>
</g>
<g>
</g>
<g>
</g>
<g>
</g>
<g>
</g>
<g>
</g>
<g>
</g>
<g>
</g>
<g>
</g>
<g>
</g>
<g>
</g>
<g>
</g>
</svg>
