<?xml version="1.0" encoding="iso-8859-1"?>
<!-- Generator: Adobe Illustrator 19.1.0, SVG Export Plug-In . SVG Version: 6.00 Build 0)  -->
<svg version="1.1" id="Capa_1" xmlns="http://www.w3.org/2000/svg" xmlns:xlink="http://www.w3.org/1999/xlink" x="0px" y="0px"
	 viewBox="0 0 491.857 491.857" style="enable-background:new 0 0 491.857 491.857;" xml:space="preserve">
<g>
	<g>
		<g>
			<path d="M245.929,105.985c-78.177,0-141.552,63.376-141.552,141.553S167.753,389.09,245.929,389.09
				s141.553-63.376,141.553-141.552C387.482,169.361,324.106,105.985,245.929,105.985z M245.929,356.919
				c-60.41,0-109.381-48.972-109.381-109.381c0-60.41,48.971-109.381,109.381-109.381S355.31,187.128,355.31,247.538
				C355.309,307.947,306.339,356.919,245.929,356.919z"/>
			<path d="M258.797,77.211c0,7.107-5.76,12.868-12.868,12.868l0,0c-7.107,0-12.868-5.761-12.868-12.868V12.868
				C233.06,5.761,238.822,0,245.929,0l0,0c7.108,0,12.868,5.761,12.868,12.868V77.211z"/>
			<path d="M258.797,414.648c0-7.108-5.76-12.87-12.868-12.87l0,0c-7.107,0-12.868,5.761-12.868,12.87v64.341
				c0,7.108,5.761,12.868,12.868,12.868l0,0c7.108,0,12.868-5.76,12.868-12.868V414.648z"/>
			<path d="M414.648,234.669c-7.108,0-12.87,5.761-12.87,12.868l0,0c0,7.107,5.761,12.868,12.87,12.868h64.341
				c7.108,0,12.868-5.761,12.868-12.868l0,0c0-7.108-5.76-12.868-12.868-12.868H414.648z"/>
			<path d="M12.868,233.06C5.761,233.06,0,238.822,0,245.929l0,0c0,7.108,5.761,12.868,12.868,12.868H77.21
				c7.107,0,12.868-5.76,12.868-12.868l0,0c0-7.107-5.761-12.868-12.868-12.868H12.868V233.06z"/>
			<path d="M80.847,75.518c-5.025-5.025-13.172-5.025-18.199,0l0,0c-5.025,5.024-5.025,13.172,0,18.199l45.496,45.496
				c5.027,5.025,13.174,5.025,18.199,0l0,0c5.027-5.027,5.027-13.173,0-18.199L80.847,75.518z"/>
			<path d="M411.009,75.518c5.027-5.025,13.174-5.025,18.198,0l0,0c5.028,5.024,5.028,13.172,0,18.199l-45.495,45.496
				c-5.027,5.025-13.174,5.025-18.199,0l0,0c-5.027-5.027-5.027-13.173,0-18.199L411.009,75.518z"/>
			<path d="M80.847,416.339c-5.025,5.027-13.172,5.027-18.199,0l0,0c-5.025-5.024-5.025-13.172,0-18.196l45.496-45.497
				c5.027-5.025,13.174-5.025,18.199,0l0,0c5.027,5.025,5.027,13.174,0,18.199L80.847,416.339z"/>
			<path d="M411.009,416.339c5.027,5.027,13.174,5.027,18.198,0l0,0c5.028-5.024,5.028-13.172,0-18.196l-45.495-45.497
				c-5.027-5.025-13.174-5.025-18.199,0l0,0c-5.027,5.025-5.027,13.174,0,18.199L411.009,416.339z"/>
		</g>
	</g>
	<g>
	</g>
	<g>
	</g>
	<g>
	</g>
	<g>
	</g>
	<g>
	</g>
	<g>
	</g>
	<g>
	</g>
	<g>
	</g>
	<g>
	</g>
	<g>
	</g>
	<g>
	</g>
	<g>
	</g>
	<g>
	</g>
	<g>
	</g>
	<g>
	</g>
</g>
<g>
</g>
<g>
</g>
<g>
</g>
<g>
</g>
<g>
</g>
<g>
</g>
<g>
</g>
<g>
</g>
<g>
</g>
<g>
</g>
<g>
</g>
<g>
</g>
<g>
</g>
<g>
</g>
<g>
</g>
</svg>
