<?xml version='1.0' encoding='utf-8'?>
<!DOCTYPE svg PUBLIC '-//W3C//DTD SVG 1.1//EN' 'http://www.w3.org/Graphics/SVG/1.1/DTD/svg11.dtd'>
<svg version="1.1" xmlns="http://www.w3.org/2000/svg" viewBox="0 0 512 512" xmlns:xlink="http://www.w3.org/1999/xlink" enable-background="new 0 0 512 512">
  <g>
    <g>
      <g>
        <path d="m256,501c-129.6,0-235-102.2-235-227.8 0-87.8 50.6-166.3 132.1-204.9 10.2-4.8 22.4-0.5 27.2,9.7 4.8,10.2 0.5,22.4-9.7,27.2-67.1,31.8-108.7,96.1-108.7,168-7.10543e-15,103.1 87.1,187 194.1,187 107,0 194.1-83.9 194.1-187 0-72.4-44-138.9-112.2-169.5-10.3-4.6-14.9-16.7-10.3-27 4.6-10.3 16.7-14.9 27-10.2 82.9,37.1 136.4,118.3 136.4,206.7 0,125.6-105.4,227.8-235,227.8z"/>
        <path d="m256,287.9c-11.3,0-20.4-9.1-20.4-20.4v-236.1c0-11.3 9.2-20.4 20.4-20.4 11.3,0 20.4,9.1 20.4,20.4v236.1c0,11.3-9.1,20.4-20.4,20.4z"/>
      </g>
    </g>
  </g>
</svg>
