<?xml version='1.0' encoding='utf-8'?>
<!DOCTYPE svg PUBLIC '-//W3C//DTD SVG 1.1//EN' 'http://www.w3.org/Graphics/SVG/1.1/DTD/svg11.dtd'>
<svg version="1.1" xmlns="http://www.w3.org/2000/svg" viewBox="0 0 512 512" xmlns:xlink="http://www.w3.org/1999/xlink" enable-background="new 0 0 512 512">
  <g>
    <g>
      <path d="m117.6,333.5l-62.5,38.9c-3.2,1.8-4,5.1-2.6,7.6l26.9,47c15,26.2 47.6,42.6 74.5,30.6 159.1-70.8 237.9-148.6 303.7-303.7 11.5-27.1-4.4-59.5-30.6-74.5l-47-26.9c-1.6-0.9-5.6-1.9-7.2,2l-39.6,63.7c-1,1.8-0.3,5 2.1,6.5l13.8,8.8c18.8,12 26.4,35.6 18.1,56-18.3,45.1-72.4,102-74.7,104.4-3,2.9-58.4,55.5-103.1,73.4-20.4,8.2-43.8,0.5-55.8-18.2l-8.8-13.9c-1.1-1.6-4.3-3.5-7.2-1.7zm18.9,167.5c-37.1,0-73.2-20-92.5-53.7l-26.9-47c-12.6-22.1-5-50.3 17.1-63l62.5-38.9c22-12.6 49.2-6 62.5,14.9l8.8,13.9c1.4,2.1 4,3.1 6.1,2.2 37.3-14.9 88.9-63.9 89.4-64.3 0,0 50.4-53.1 65.7-90.9 0.9-2.2-0.1-4.8-2.2-6.2l-13.8-8.8c-20.8-13.3-27.5-40.4-15.2-61.9l39.6-63.8c5.8-10 30.2-33.5 62.7-16.5l47,26.9c42.5,24.4 63.3,75.6 49.4,121.7-22.9,76.1-66,144.3-128.1,202.9-58.6,62-126.8,105.1-202.9,128.1-9.6,3-19.4,4.4-29.2,4.4z"/>
      <path d="m47.4,219.3c-11.3,0-20.4-9.1-20.4-20.4 0-94.8 77.1-172 171.9-172 11.3,0 20.4,9.1 20.4,20.4 0,11.3-9.1,20.4-20.4,20.4-72.3,0-131.1,58.8-131.1,131.1-1.42109e-14,11.4-9.1,20.5-20.4,20.5z"/>
      <path d="m135.3,219.3c-11.3,0-20.4-9.1-20.4-20.4 0-46.3 37.7-84 84-84 11.3,0 20.4,9.1 20.4,20.4 0,11.3-9.1,20.4-20.4,20.4-23.8,0-43.2,19.4-43.2,43.2 0,11.3-9.1,20.4-20.4,20.4z"/>
    </g>
  </g>
</svg>
