<?xml version="1.0" encoding="iso-8859-1"?>
<!-- Generator: Adobe Illustrator 18.0.0, SVG Export Plug-In . SVG Version: 6.00 Build 0)  -->
<!DOCTYPE svg PUBLIC "-//W3C//DTD SVG 1.1//EN" "http://www.w3.org/Graphics/SVG/1.1/DTD/svg11.dtd">
<svg version="1.1" id="Capa_1" xmlns="http://www.w3.org/2000/svg" xmlns:xlink="http://www.w3.org/1999/xlink" x="0px" y="0px"
	 viewBox="0 0 321 321" style="enable-background:new 0 0 321 321;" xml:space="preserve">
<path d="M267.233,111.319c-2.507-19.117-11.573-36.755-26.066-50.399c-16.668-15.691-38.676-24.333-61.968-24.333
	c-28.087,0-54.066,12.591-70.81,33.998c-3.555-0.572-7.165-0.86-10.794-0.86c-15.583,0-30.671,5.394-42.484,15.187
	c-10.322,8.557-17.6,19.983-20.863,32.604C13.273,128.055,0,148.946,0,172.115c0,33.938,28.562,61.548,63.668,61.548h77.701
	c8.563,21.084,23.569,41.847,49.877,50.274c0.992,0.317,2.021,0.477,3.051,0.477s2.059-0.159,3.051-0.477
	c26.308-8.427,41.314-29.19,49.877-50.274h10.109c35.105,0,63.666-27.61,63.666-61.548C321,141.565,297.608,115.955,267.233,111.319
	z M194.297,263.806c-18.703-7.321-29.5-24.341-35.746-41.453c-0.18-1.369-0.635-2.648-1.311-3.785
	c-4.288-13.095-6.045-25.829-6.757-33.862c10.602-1.994,28.257-6.482,43.813-15.954c15.554,9.472,33.21,13.96,43.813,15.954
	C236.4,203.997,228.721,250.332,194.297,263.806z M257.334,213.663h-3.696c4.83-19.667,4.96-35.936,4.96-37.47
	c0-5.141-3.91-9.445-9.026-9.952c-0.292-0.029-29.416-3.063-49.397-17.576c-3.505-2.545-8.248-2.546-11.753-0.001
	c-19.986,14.514-49.107,17.548-49.386,17.575c-5.127,0.495-9.039,4.804-9.039,9.954c0,1.533,0.13,17.803,4.96,37.47H63.668
	C39.59,213.663,20,195.024,20,172.115c0-16.748,10.482-31.78,26.706-38.297c3.248-1.305,5.577-4.213,6.142-7.668
	c3.392-20.766,22.629-36.426,44.748-36.426c4.238,0,8.432,0.556,12.464,1.651c4.165,1.13,8.583-0.535,10.963-4.134
	c12.695-19.195,34.443-30.655,58.177-30.655c37.106,0,67.938,28.805,68.729,64.211c0.12,5.394,4.498,9.72,9.893,9.775
	C281.63,130.821,301,149.457,301,172.115C301,195.024,281.411,213.663,257.334,213.663z"/>
<g>
</g>
<g>
</g>
<g>
</g>
<g>
</g>
<g>
</g>
<g>
</g>
<g>
</g>
<g>
</g>
<g>
</g>
<g>
</g>
<g>
</g>
<g>
</g>
<g>
</g>
<g>
</g>
<g>
</g>
</svg>
