<?xml version='1.0' encoding='iso-8859-1'?>
<!DOCTYPE svg PUBLIC '-//W3C//DTD SVG 1.1//EN' 'http://www.w3.org/Graphics/SVG/1.1/DTD/svg11.dtd'>
<svg version="1.1" xmlns="http://www.w3.org/2000/svg" viewBox="0 0 297 297" xmlns:xlink="http://www.w3.org/1999/xlink" enable-background="new 0 0 297 297">
  <path d="m293.697,128.584l-138.368-124.672c-3.797-3.42-9.565-3.424-13.366-0.008l-138.652,124.672c-3.076,2.766-4.13,7.143-2.647,11.006 1.48,3.861 5.189,6.412 9.327,6.412h31.38v139.672c0,5.518 4.473,9.99 9.989,9.99h194.281c5.517,0 9.989-4.473 9.989-9.99v-139.672h31.38c4.136,0 7.843-2.549 9.325-6.408 1.484-3.86 0.435-8.235-2.638-11.002zm-168.173,57.57h45.953v6.494c0,12.668-10.307,22.975-22.977,22.975s-22.977-10.307-22.977-22.975v-6.494zm110.128,89.521h-77.192c0.014-0.203 0.031-0.406 0.031-0.613v-40.645c18.883-4.516 32.967-21.525 32.967-41.77v-6.494h6.493c5.517,0 9.989-4.473 9.989-9.99 0-5.516-4.473-9.99-9.989-9.99h-14.735v-22.975c0-5.518-4.473-9.99-9.989-9.99s-9.989,4.473-9.989,9.99v22.975h-29.471v-22.975c0-5.518-4.473-9.99-9.989-9.99-5.517,0-9.989,4.473-9.989,9.99v22.975h-14.737c-5.517,0-9.989,4.475-9.989,9.99 0,5.518 4.473,9.99 9.989,9.99h6.493v6.494c0,20.244 14.084,37.254 32.967,41.77v40.645c0,0.207 0.018,0.41 0.031,0.613h-77.192v-135.193l87.152-77.676 87.148,77.676v135.193zm13.795-149.66l-94.297-84.047c-3.787-3.377-9.506-3.377-13.293-0.002l-94.301,84.049h-11.512l112.594-101.242 112.363,101.242h-11.554z"/>
</svg>
