<?xml version="1.0" encoding="iso-8859-1"?>
<!-- Generator: Adobe Illustrator 16.0.0, SVG Export Plug-In . SVG Version: 6.00 Build 0)  -->
<!DOCTYPE svg PUBLIC "-//W3C//DTD SVG 1.1//EN" "http://www.w3.org/Graphics/SVG/1.1/DTD/svg11.dtd">
<svg version="1.1" id="Capa_1" xmlns="http://www.w3.org/2000/svg" xmlns:xlink="http://www.w3.org/1999/xlink" x="0px" y="0px"
	 width="492.292px" height="492.292px" viewBox="0 0 492.292 492.292" style="enable-background:new 0 0 492.292 492.292;"
	 xml:space="preserve">
<g>
	<g>
		<g id="Icons_1_">
			<g>
				<path d="M246.164,0C151.144,0,73.828,77.308,73.828,172.326c0,38.915,12.76,75.668,36.889,106.283
					c18.016,22.862,35.223,48.063,49.773,72.873l0.322,0.547v32.647c0,32.849,18.867,61.092,46.145,75.345
					c3.588,18.383,19.75,32.271,39.172,32.271c19.431,0,35.592-13.891,39.172-32.271c27.285-14.253,46.146-42.496,46.146-75.345
					V352.09l0.354-0.603c14.8-25.207,31.535-49.726,49.775-72.87c24.127-30.625,36.889-67.378,36.889-106.293
					C418.464,77.307,341.167,0,246.164,0z M246.127,437.088c-18.254,0-34.301-9.395-43.688-23.572h87.375
					C280.435,427.695,264.381,437.088,246.127,437.088z M193.718,380.611v-20.998h104.819v20.998H193.718z M355.74,258.254
					c-17.209,21.827-33.146,44.816-47.479,68.451H184.017c-14.201-23.426-30.496-46.932-47.465-68.461
					c-19.502-24.751-29.818-54.467-29.818-85.919c0-76.877,62.549-139.419,139.43-139.419c76.859,0,139.396,62.542,139.396,139.419
					C385.558,203.778,375.242,233.494,355.74,258.254z"/>
				<path d="M215.584,127.716c-28.5,28.511-32.115,55.014-20.883,75.057c0.252,0.468,0.703,0.803,1.215,0.885
					c0.533,0.096,1.066-0.041,1.482-0.386l74.436-63.32c1.961-1.664,4.918-1.428,6.561,0.546c1.51,1.76,1.475,4.332,0.014,6.043
					l-49.488,58.176l-23.938,27.572c0,0-19.488,25.018-28.178,47.584c-0.547,1.443-0.404,3.074,0.416,4.393
					c0.799,1.325,2.199,2.193,3.744,2.349l25.434,2.53c1.592,0.149,3.148-0.459,4.207-1.646c1.059-1.191,1.477-2.821,1.141-4.372
					c-2.473-11.159-4.789-34.495,9.271-57.012c19.313,7.822,43.625,2.712,69.633-23.315c34.547-34.543,51.61-99.824,38.174-113.255
					C316.234,76.945,250.131,93.173,215.584,127.716z"/>
			</g>
		</g>
	</g>
</g>
<g>
</g>
<g>
</g>
<g>
</g>
<g>
</g>
<g>
</g>
<g>
</g>
<g>
</g>
<g>
</g>
<g>
</g>
<g>
</g>
<g>
</g>
<g>
</g>
<g>
</g>
<g>
</g>
<g>
</g>
</svg>
