<?xml version="1.0" encoding="iso-8859-1"?>
<!-- Generator: Adobe Illustrator 18.0.0, SVG Export Plug-In . SVG Version: 6.00 Build 0)  -->
<!DOCTYPE svg PUBLIC "-//W3C//DTD SVG 1.1//EN" "http://www.w3.org/Graphics/SVG/1.1/DTD/svg11.dtd">
<svg version="1.1" id="Capa_1" xmlns="http://www.w3.org/2000/svg" xmlns:xlink="http://www.w3.org/1999/xlink" x="0px" y="0px"
	 viewBox="0 0 490.606 490.606" style="enable-background:new 0 0 490.606 490.606;" xml:space="preserve">
<path d="M449.399,96.438H190.725c-7.957-30.98-35.885-54.04-69.31-54.04c-33.424,0-61.345,23.06-69.304,54.04H41.216
	C18.449,96.438,0,114.886,0,137.652v215.3c0,22.767,18.449,41.216,41.216,41.216h10.896c7.959,30.978,35.88,54.04,69.304,54.04
	c33.425,0,61.353-23.062,69.31-54.04h258.675c22.758,0,41.207-18.449,41.207-41.216v-215.3
	C490.606,114.886,472.157,96.438,449.399,96.438z M168.748,376.404c0,26.096-21.237,47.333-47.333,47.333S74.09,402.5,74.09,376.404
	V114.201c0-26.096,21.229-47.332,47.325-47.332s47.333,21.236,47.333,47.332V376.404z M251.839,161.399
	c0-6.875,5.576-12.451,12.45-12.451h132.297c6.875,0,12.451,5.576,12.451,12.451v54.628c0,6.875-5.576,12.451-12.451,12.451H264.289
	c-6.874,0-12.45-5.576-12.45-12.451V161.399z M284.044,357.509c0,3.067-2.493,5.561-5.56,5.561h-26.605
	c-3.066,0-5.561-2.493-5.561-5.561v-26.606c0-3.066,2.494-5.56,5.561-5.56h26.605c3.066,0,5.56,2.493,5.56,5.56V357.509z
	 M284.044,292.253c0,3.067-2.493,5.56-5.56,5.56h-26.605c-3.066,0-5.561-2.492-5.561-5.56v-26.607c0-3.066,2.494-5.559,5.561-5.559
	h26.605c3.066,0,5.56,2.493,5.56,5.559V292.253z M349.3,357.509c0,3.067-2.493,5.561-5.56,5.561h-26.604
	c-3.067,0-5.562-2.493-5.562-5.561v-26.606c0-3.066,2.494-5.56,5.562-5.56h26.604c3.066,0,5.56,2.493,5.56,5.56V357.509z
	 M349.3,292.253c0,3.067-2.493,5.56-5.56,5.56h-26.604c-3.067,0-5.562-2.492-5.562-5.56v-26.607c0-3.066,2.494-5.559,5.562-5.559
	h26.604c3.066,0,5.56,2.493,5.56,5.559V292.253z M414.557,357.509c0,3.067-2.494,5.561-5.561,5.561h-26.605
	c-3.066,0-5.56-2.493-5.56-5.561v-26.606c0-3.066,2.494-5.56,5.56-5.56h26.605c3.066,0,5.561,2.493,5.561,5.56V357.509z
	 M414.557,292.253c0,3.067-2.494,5.56-5.561,5.56h-26.605c-3.066,0-5.56-2.492-5.56-5.56v-26.607c0-3.066,2.494-5.559,5.56-5.559
	h26.605c3.066,0,5.561,2.493,5.561,5.559V292.253z"/>
<g>
</g>
<g>
</g>
<g>
</g>
<g>
</g>
<g>
</g>
<g>
</g>
<g>
</g>
<g>
</g>
<g>
</g>
<g>
</g>
<g>
</g>
<g>
</g>
<g>
</g>
<g>
</g>
<g>
</g>
</svg>
