<?xml version='1.0' encoding='utf-8'?>
<!DOCTYPE svg PUBLIC '-//W3C//DTD SVG 1.1//EN' 'http://www.w3.org/Graphics/SVG/1.1/DTD/svg11.dtd'>
<svg version="1.1" xmlns="http://www.w3.org/2000/svg" viewBox="0 0 512 512" xmlns:xlink="http://www.w3.org/1999/xlink" enable-background="new 0 0 512 512">
  <g>
    <g>
      <g>
        <path d="m402.5,95h-39.2v-63.6c0-11.3-9.1-20.4-20.4-20.4h-181.5c-11.3,0-20.4,9.1-20.4,20.4v63.6h-39.2c-11.3,0-20.4,9.1-20.4,20.4v365.2c0,11.3 9.1,20.4 20.4,20.4h300.7c11.3,0 20.4-9.1 20.4-20.4v-365.2c0-11.3-9.2-20.4-20.4-20.4zm-220.6-43.2h140.6v43.2h-140.6v-43.2zm200.1,408.4h-259.8v-324.4h259.8v324.4z"/>
        <path d="m225.1,319.9h18.1l-35.6,59.6c-5.8,9.7-2.6,22.2 7.1,28 3.3,2 6.9,2.9 10.4,2.9 6.9,0 13.7-3.5 17.5-9.9l54-90.5c3.8-6.3 3.9-14.2 0.2-20.5-3.6-6.4-10.4-10.3-17.8-10.3h-20.7l30-58.6c5.1-10 1.2-22.3-8.9-27.5-10.1-5.2-22.4-1.2-27.5,8.9l-45.2,88.4c-3.2,6.3-3,13.9 0.8,20 3.9,5.8 10.5,9.5 17.6,9.5z"/>
      </g>
    </g>
  </g>
</svg>
