<?xml version='1.0' encoding='iso-8859-1'?>
<svg version="1.1" xmlns="http://www.w3.org/2000/svg" viewBox="0 0 490 490" xmlns:xlink="http://www.w3.org/1999/xlink" enable-background="new 0 0 490 490">
  <path d="M405.079,275h-155c-8.284,0-15,6.716-15,15v60c0,8.284,6.716,15,15,15h155c8.284,0,15-6.716,15-15v-60  C420.079,281.716,413.363,275,405.079,275z M390.079,335h-125v-30h125V335z M475,145h-54.92V30c0-8.284-6.716-15-15-15H249.995  c-8.284,0-15,6.716-15,15v115h-45.132c-2.537-27.993-26.144-50-54.796-50H55.021C24.683,95,0,119.675,0,150.004v269.992  C0,450.325,24.683,475,55.021,475h80.046c28.652,0,52.259-22.007,54.796-50H475c8.284,0,15-6.716,15-15V160  C490,151.716,483.284,145,475,145z M160.089,419.996c0,13.787-11.225,25.004-25.021,25.004H55.021C41.225,445,30,433.783,30,419.996  V150.004C30,136.217,41.225,125,55.021,125h80.046c13.797,0,25.021,11.217,25.021,25.004V419.996z M264.995,160.238  c0.001-0.079,0.002-0.159,0.002-0.238s-0.001-0.159-0.002-0.238V45H390.08v170H264.995V160.238z M460,395H190.089V175h44.906v55  c0,8.284,6.716,15,15,15H405.08c8.284,0,15-6.716,15-15v-55H460V395z"/>
</svg>
