<?xml version="1.0" encoding="iso-8859-1"?>
<!-- Generator: Adobe Illustrator 18.1.1, SVG Export Plug-In . SVG Version: 6.00 Build 0)  -->
<svg version="1.1" id="Capa_1" xmlns="http://www.w3.org/2000/svg" xmlns:xlink="http://www.w3.org/1999/xlink" x="0px" y="0px"
	 viewBox="0 0 54.063 54.063" style="enable-background:new 0 0 54.063 54.063;" xml:space="preserve">
<g>
	<path style="fill:#010002;" d="M29.031,1.076C28.53,0.392,27.801,0,27.031,0c-0.768,0-1.498,0.392-2,1.076
		c-5.262,7.172-17.5,24.791-17.5,33.487c0,10.752,8.748,19.5,19.5,19.5s19.5-8.748,19.5-19.5
		C46.532,25.867,34.294,8.248,29.031,1.076z M27.031,52.063c-9.649,0-17.5-7.851-17.5-17.5c0-6.621,8.84-21.029,17.113-32.304
		c0.121-0.165,0.262-0.26,0.387-0.26s0.266,0.095,0.387,0.26c8.273,11.276,17.113,25.683,17.113,32.304
		C44.532,44.212,36.68,52.063,27.031,52.063z M40.998,29.694l-0.787,0.396c-0.213,0.107-0.323,0.378-0.256,0.606
		c0.351,1.194,0.529,2.433,0.529,3.696c0,7.215-5.87,13.085-13.085,13.085c-3.575,0-6.914-1.415-9.401-3.984
		c-0.166-0.17-0.162-0.443,0.01-0.609c0.171-0.165,0.444-0.161,0.61,0.01c2.323,2.4,5.442,3.722,8.781,3.722
		c6.74,0,12.222-5.484,12.222-12.223c0-1.126-0.152-2.232-0.452-3.301c-0.065-0.23-0.297-0.326-0.51-0.219l-0.731,0.369
		c-0.213,0.108-0.374,0.001-0.36-0.236l0.193-3.434c0.014-0.237,0.186-0.324,0.386-0.193l2.876,1.884l0,0
		C41.224,29.393,41.213,29.586,40.998,29.694z M16.799,35.898l-0.82,3.339c-0.058,0.231-0.243,0.285-0.415,0.12l-2.48-2.381
		c-0.171-0.164-0.125-0.353,0.103-0.419l0.837-0.242c0.228-0.067,0.386-0.312,0.362-0.549c-0.048-0.455-0.071-0.914-0.071-1.373
		c0-7.215,5.87-13.085,13.085-13.085c2.928,0,5.696,0.945,8.006,2.734c0.187,0.146,0.223,0.417,0.077,0.606
		c-0.146,0.188-0.417,0.223-0.605,0.076c-2.158-1.67-4.744-2.554-7.478-2.554c-6.739,0-12.222,5.484-12.225,12.222
		c0,0.377,0.019,0.754,0.054,1.129c0.022,0.238,0.232,0.375,0.461,0.309l0.798-0.231C16.718,35.533,16.857,35.667,16.799,35.898z"/>
</g>
<g>
</g>
<g>
</g>
<g>
</g>
<g>
</g>
<g>
</g>
<g>
</g>
<g>
</g>
<g>
</g>
<g>
</g>
<g>
</g>
<g>
</g>
<g>
</g>
<g>
</g>
<g>
</g>
<g>
</g>
</svg>
