<?xml version="1.0" encoding="iso-8859-1"?>
<!-- Generator: Adobe Illustrator 18.0.0, SVG Export Plug-In . SVG Version: 6.00 Build 0)  -->
<!DOCTYPE svg PUBLIC "-//W3C//DTD SVG 1.1//EN" "http://www.w3.org/Graphics/SVG/1.1/DTD/svg11.dtd">
<svg version="1.1" id="Capa_1" xmlns="http://www.w3.org/2000/svg" xmlns:xlink="http://www.w3.org/1999/xlink" x="0px" y="0px"
	 viewBox="0 0 317.855 317.855" style="enable-background:new 0 0 317.855 317.855;" xml:space="preserve">
<g>
	<path d="M158.929,317.855c-1.029,0-2.059-0.159-3.051-0.477c-33.344-10.681-61.732-31.168-84.377-60.891
		c-17.828-23.401-32.103-52.526-42.426-86.566C11.661,112.506,11.461,61.358,11.461,59.209c0-5.15,3.912-9.459,9.039-9.954
		c0.772-0.075,78.438-8.048,132.553-47.347c3.504-2.546,8.249-2.543,11.753,0.001C218.906,41.207,296.582,49.18,297.36,49.256
		c5.123,0.5,9.034,4.807,9.034,9.953c0,2.149-0.2,53.297-17.613,110.713c-10.324,34.04-24.598,63.165-42.426,86.566
		c-22.644,29.723-51.032,50.21-84.376,60.891C160.987,317.696,159.958,317.855,158.929,317.855z M31.748,67.982
		c0.831,16.784,4.062,55.438,16.604,96.591c21.405,70.227,58.601,114.87,110.576,132.746
		c52.096-17.916,89.335-62.711,110.713-133.202c12.457-41.074,15.653-79.434,16.472-96.134
		c-22.404-3.269-80.438-14.332-127.186-45.785C112.175,53.648,54.153,64.713,31.748,67.982z"/>
	<g>
		<path d="M192.732,202.035c-2.56,0-5.118-0.977-7.071-2.929l-67.607-67.609c-3.905-3.905-3.905-10.237,0-14.143
			c3.907-3.904,10.237-3.903,14.143,0l67.607,67.609c3.905,3.905,3.905,10.237,0,14.143
			C197.851,201.059,195.291,202.035,192.732,202.035z"/>
		<path d="M125.123,202.035c-2.56,0-5.118-0.977-7.071-2.929c-3.905-3.905-3.905-10.237,0-14.143l67.607-67.609
			c3.906-3.904,10.236-3.904,14.143,0c3.905,3.905,3.905,10.237,0,14.143l-67.607,67.609
			C130.241,201.059,127.683,202.035,125.123,202.035z"/>
	</g>
</g>
<g>
</g>
<g>
</g>
<g>
</g>
<g>
</g>
<g>
</g>
<g>
</g>
<g>
</g>
<g>
</g>
<g>
</g>
<g>
</g>
<g>
</g>
<g>
</g>
<g>
</g>
<g>
</g>
<g>
</g>
</svg>
