<?xml version="1.0" encoding="iso-8859-1"?>
<!-- Generator: Adobe Illustrator 18.0.0, SVG Export Plug-In . SVG Version: 6.00 Build 0)  -->
<!DOCTYPE svg PUBLIC "-//W3C//DTD SVG 1.1//EN" "http://www.w3.org/Graphics/SVG/1.1/DTD/svg11.dtd">
<svg version="1.1" id="Capa_1" xmlns="http://www.w3.org/2000/svg" xmlns:xlink="http://www.w3.org/1999/xlink" x="0px" y="0px"
	 viewBox="0 0 247.874 247.874" style="enable-background:new 0 0 247.874 247.874;" xml:space="preserve">
<path d="M129.119,4.952L123.937,0l-5.182,4.952c-3.839,3.669-94.027,90.471-94.027,143.714c0,54.703,44.505,99.208,99.209,99.208
	s99.208-44.505,99.208-99.208C223.145,95.423,132.958,8.621,129.119,4.952z M123.937,232.874c-46.433,0-84.208-37.775-84.208-84.208
	c0-36.424,56.602-100.32,84.208-127.808c27.606,27.487,84.208,91.384,84.208,127.808
	C208.145,195.099,170.37,232.874,123.937,232.874z M119.007,202.991c9.507,0,18.702-2.775,26.589-8.026l8.313,12.486
	c-10.358,6.896-22.427,10.54-34.902,10.54c-34.776,0-63.069-28.292-63.069-63.068c0-12.474,3.645-24.542,10.54-34.901l12.486,8.313
	c-5.251,7.888-8.026,17.083-8.026,26.589C70.938,181.428,92.502,202.991,119.007,202.991z"/>
<g>
</g>
<g>
</g>
<g>
</g>
<g>
</g>
<g>
</g>
<g>
</g>
<g>
</g>
<g>
</g>
<g>
</g>
<g>
</g>
<g>
</g>
<g>
</g>
<g>
</g>
<g>
</g>
<g>
</g>
</svg>
