<?xml version="1.0" encoding="iso-8859-1"?>
<!-- Generator: Adobe Illustrator 18.1.1, SVG Export Plug-In . SVG Version: 6.00 Build 0)  -->
<svg version="1.1" id="Capa_1" xmlns="http://www.w3.org/2000/svg" xmlns:xlink="http://www.w3.org/1999/xlink" x="0px" y="0px"
	 viewBox="0 0 792 792" style="enable-background:new 0 0 792 792;" xml:space="preserve">
<g>
	<path d="M665.335,486.777c-7.815-46.161-25.534-88.323-43.162-126.578C569.197,243.434,505.408,137.391,442.619,39.255
		l-7.815-13.721C423.991,8.814,411.269,0,396.549,0c-21.626,0-35.347,19.627-39.255,25.534c0,0,0,0,0,1L343.573,48.16
		c-24.534,39.255-50.068,80.508-74.602,121.671C230.716,234.62,182.647,320.944,147.3,413.174
		c-11.813,30.441-22.535,60.881-23.535,94.229c-3.907,86.324,27.442,159.018,92.23,215.901C266.063,767.466,329.852,792,395.549,792
		l0,0c96.138,0,183.552-49.068,233.529-132.485C662.427,604.541,675.148,545.659,665.335,486.777z M597.638,640.888
		c-43.162,72.603-118.764,114.765-202.18,114.765c-56.883,0-112.857-20.627-156.019-58.882
		c-55.974-49.068-83.416-112.857-80.508-187.459c1-27.442,9.814-53.975,21.626-82.417c34.348-90.322,81.417-174.647,118.764-238.436
		c23.535-40.254,49.068-81.417,74.602-120.672l12.721-20.627c0-1,1-1,1-1.999c1.999-2.908,5.906-7.815,7.815-8.814
		c0,0,2.908,1,7.815,8.814l7.815,12.721c60.881,96.138,124.67,201.18,176.646,316.037c16.72,37.256,33.348,76.51,40.254,117.764
		C637.893,542.751,627.079,592.728,597.638,640.888z M413.087,662.423c0,9.814-7.815,17.628-17.628,17.628
		c-89.323,0-160.926-72.603-160.926-160.926c0-9.814,7.815-17.628,17.628-17.628c9.814,0,17.628,7.815,17.628,17.628
		c0.999,68.696,56.974,124.67,125.669,124.67C405.272,643.795,413.087,652.609,413.087,662.423z"/>
</g>
<g>
</g>
<g>
</g>
<g>
</g>
<g>
</g>
<g>
</g>
<g>
</g>
<g>
</g>
<g>
</g>
<g>
</g>
<g>
</g>
<g>
</g>
<g>
</g>
<g>
</g>
<g>
</g>
<g>
</g>
</svg>
